<?xml version="1.0" encoding="UTF-8" standalone="no"?>
<!-- Created with Inkscape (http://www.inkscape.org/) -->

<svg
   xmlns:dc="http://purl.org/dc/elements/1.1/"
   xmlns:cc="http://creativecommons.org/ns#"
   xmlns:rdf="http://www.w3.org/1999/02/22-rdf-syntax-ns#"
   xmlns:svg="http://www.w3.org/2000/svg"
   xmlns="http://www.w3.org/2000/svg"
   xmlns:xlink="http://www.w3.org/1999/xlink"
   xmlns:sodipodi="http://sodipodi.sourceforge.net/DTD/sodipodi-0.dtd"
   xmlns:inkscape="http://www.inkscape.org/namespaces/inkscape"
   width="1044.4141"
   height="718.47937"
   id="svg2"
   version="1.1"
   inkscape:version="0.48.2 r9819"
   sodipodi:docname="hand_drawings.svg"
   inkscape:export-filename="C:\workspace\GWH\doc\hand_drawings.png"
   inkscape:export-xdpi="90"
   inkscape:export-ydpi="90">
  <defs
     id="defs4" />
  <sodipodi:namedview
     id="base"
     pagecolor="#ffffff"
     bordercolor="#666666"
     borderopacity="1.0"
     inkscape:pageopacity="0.0"
     inkscape:pageshadow="2"
     inkscape:zoom="0.24748737"
     inkscape:cx="537.03457"
     inkscape:cy="558.91474"
     inkscape:document-units="px"
     inkscape:current-layer="layer1"
     showgrid="false"
     inkscape:window-width="1366"
     inkscape:window-height="716"
     inkscape:window-x="-8"
     inkscape:window-y="-8"
     inkscape:window-maximized="1"
     fit-margin-top="0"
     fit-margin-left="0"
     fit-margin-right="0"
     fit-margin-bottom="0"
     showborder="false"
     borderlayer="false"
     inkscape:showpageshadow="false"
     inkscape:snap-nodes="false" />
  <metadata
     id="metadata7">
    <rdf:RDF>
      <cc:Work
         rdf:about="">
        <dc:format>image/svg+xml</dc:format>
        <dc:type
           rdf:resource="http://purl.org/dc/dcmitype/StillImage" />
        <dc:title></dc:title>
      </cc:Work>
    </rdf:RDF>
  </metadata>
  <g
     inkscape:label="Layer 1"
     inkscape:groupmode="layer"
     id="layer1"
     transform="translate(-65.786831,-335.15794)">
    <rect
       style="fill:#0e9031;fill-opacity:1;stroke:none"
       id="rect3918"
       width="1899.0868"
       height="1458.6603"
       x="-1101.9495"
       y="-227.2361" />
    <g
       id="g3883"
       style="stroke:#ffffff;stroke-width:3.59999989999999980;stroke-miterlimit:4;stroke-opacity:1;stroke-dasharray:none;fill:none;fill-opacity:1"
       transform="translate(-367.69552,-145.46196)">
      <path
         transform="translate(65.786831,335.15794)"
         inkscape:connector-curvature="0"
         id="path3819"
         d="m 191.42857,-27.234916 c -7.75063,-3.486697 -14.80263,-2.857142 -22.85714,-2.857142 -4.76191,0 -9.52381,0 -14.28572,0 -0.95238,0 -1.90476,0 -2.85714,0 -0.95238,0 -2.00531,-0.425918 -2.85714,0 -1.20468,0.602338 -1.57939,2.431225 -2.85714,2.857142 -1.80702,0.602339 -4.36742,-1.34687 -5.71429,0 -1.34687,1.34687 0.60234,3.90727 0,5.714286 -0.85184,2.555506 -4.50961,3.304931 -5.71429,5.714286 -0.85183,1.703671 0.85184,4.010615 0,5.714286 -0.60233,1.2046767 -2.43122,1.5793893 -2.85714,2.8571424 -0.43596,1.3078968 0,12.6909802 0,14.2857143 0,4.7619043 0,9.5238093 0,14.2857143 0,1.904762 -0.46197,3.866395 0,5.714286 0.5165,2.066004 2.18371,3.69398 2.85714,5.714285 0.30117,0.903508 -0.67343,2.183708 0,2.857143 3.47996,3.479953 6.38346,1.33835 8.57143,5.714286 1.97051,3.94102 -3.46015,2.555636 2.85715,5.714286 1.70367,0.851835 3.94575,-0.707411 5.71428,0 3.95455,1.581818 7.47403,4.132467 11.42857,5.714285 0.88427,0.353706 1.90476,0 2.85715,0 1.90476,0 3.80952,0 5.71428,0 7.61905,0 15.2381,0 22.85714,0 1.9434,0 13.71696,0.379171 14.28572,0 1.77192,-1.181283 1.67586,-3.942361 2.85714,-5.714285 0.95238,-0.952381 1.90476,-1.904762 2.85714,-2.857143 0.95239,0 2.18371,0.673435 2.85715,0 0.67343,-0.673435 -0.42592,-2.005308 0,-2.857143 0.60234,-1.204677 2.43122,-1.57939 2.85714,-2.857143 0.60234,-1.807016 0,-3.809524 0,-5.714286 0,-2.857142 0,-5.714285 0,-8.571428 0,-4.761905 0,-9.52381 0,-14.2857145 0,-0.9523809 0,-1.9047619 0,-2.8571428 0,-0.952381 0.42592,-2.0053074 0,-2.8571429 -1.20468,-2.4093544 -4.86245,-3.1587794 -5.71429,-5.7142857 0,-16.1904761 1.90477,-0.9523809 -2.85714,-5.7142857 -0.67343,-0.673435 0.85184,-2.4312251 0,-2.8571424 -1.70367,-0.851836 -4.01061,0.851835 -5.71428,0 -0.85184,-0.425918 0.6097,-2.125504 0,-2.857143 -4.31123,-5.173472 -8.51106,-10.82092 -14.28572,-14.285715 -15.2196,-9.13176 -14.28571,3.19299 -14.28571,-5.714285"
         style="fill:none;stroke:#ffffff;stroke-width:3.59999989999999980;stroke-linecap:butt;stroke-linejoin:miter;stroke-miterlimit:4;stroke-opacity:1;stroke-dasharray:none;fill-opacity:1" />
      <path
         transform="translate(65.786831,335.15794)"
         inkscape:connector-curvature="0"
         id="path3821"
         d="m 155.71429,-5.0920592 c -2.26536,3.7755935 -2.14286,2.1831067 -2.14286,4.28571427 0,1.61374019 0.21296,-0.21295887 -1.42857,1.42857143 -0.16836,0.16835876 0,0.4761905 0,0.7142857 0,0.2380953 0,0.4761905 0,0.7142857 0,0.4761905 -0.21296,1.0026538 0,1.4285715 0.10648,0.2129588 0.48841,-0.075292 0.71428,0 0.50508,0.1683587 0.9235,0.5459269 1.42857,0.7142857 0.45176,0.1505846 0.95239,0 1.42858,0 1.19047,0 2.38095,0 3.57142,0 0.2381,0 0.47619,0 0.71429,0 0.2381,0 0.60781,0.2129588 0.71429,0 0.15179,-0.3035824 0,-2.9728567 0,-3.5714286 0,-0.71428571 0,-1.42857143 0,-2.1428571 0,-0.2380953 0,-0.4761905 0,-0.7142858 0,-0.2380952 0.10648,-0.5013268 0,-0.7142857 -0.15059,-0.3011693 -0.41312,-0.563701 -0.71429,-0.7142857 -0.21296,-0.1064794 -0.71429,0.2380953 -0.71429,0 0,-0.2380952 0.47619,0 0.71429,0 -1.42857,-0.4761905 -2.85714,-0.9523809 -4.28571,-1.4285714 z"
         style="fill:none;stroke:#ffffff;stroke-width:3.59999989999999980;stroke-linecap:butt;stroke-linejoin:miter;stroke-miterlimit:4;stroke-opacity:1;stroke-dasharray:none;fill-opacity:1" />
      <path
         transform="translate(65.786831,335.15794)"
         inkscape:connector-curvature="0"
         id="path3823"
         d="m 193.57143,-3.6634878 c -2.39218,0.4366091 -3.52325,0.5697507 -4.28572,2.85714287 -0.0753,0.22587698 0.16836,0.54592696 0,0.71428572 -0.16835,0.16835876 -0.54592,-0.16835876 -0.71428,0 -0.33672,0.33671751 0.33672,1.09185391 0,1.42857141 -0.16836,0.1683588 -0.54593,-0.1683587 -0.71429,0 -0.16836,0.1683588 0,0.4761905 0,0.7142857 0,0.7142857 0,1.4285715 0,2.1428572 0,0.7142857 0,1.4285714 0,2.1428571 0,0.2380953 -0.16836,0.545927 0,0.7142857 0.16836,0.1683588 0.47619,0 0.71429,0 0.47619,0 0.95238,0 1.42857,0 0.12969,0 4.70784,0.097387 5,0 1.42139,-0.4737975 0.33333,-0.6666666 0.71429,-1.4285714 0.15058,-0.3011693 0.5637,-0.4131164 0.71428,-0.7142857 0.10648,-0.2129589 -0.0753,-0.4884087 0,-0.7142857 0.16836,-0.5050763 0.54593,-0.9234952 0.71429,-1.4285715 0.15058,-0.4517539 -0.33672,-1.0918539 0,-1.4285714 0.16836,-0.1683587 0.54592,0.1683588 0.71428,0 0.16836,-0.1683587 0,-0.47619046 0,-0.7142857 0,-0.46923006 0.084,-2.6891777 0,-2.8571429 -0.10648,-0.2129588 -0.48841,0.075292 -0.71428,0 -1.21639,-0.4054615 -2.38096,-0.9523809 -3.57143,-1.4285714 z"
         style="fill:none;stroke:#ffffff;stroke-width:3.59999989999999980;stroke-linecap:butt;stroke-linejoin:miter;stroke-miterlimit:4;stroke-opacity:1;stroke-dasharray:none;fill-opacity:1" />
      <path
         transform="translate(65.786831,335.15794)"
         inkscape:connector-curvature="0"
         id="path3825"
         d="m 162.14286,27.050798 c 1.66666,0.952381 3.33333,1.904762 5,2.857143 0.23809,0 0.50132,-0.10648 0.71428,0 0.30117,0.150584 0.39485,0.607806 0.71429,0.714286 0.003,0.0011 2.14217,-6.82e-4 2.14286,0 0.16835,0.168358 -0.16836,0.545926 0,0.714285 0.0866,0.08658 1.13531,-0.07331 1.42857,0 0.73044,0.182611 1.41241,0.531675 2.14285,0.714286 0.60863,0.152156 1.51311,0 2.14286,0 0.44792,0 2.76891,0.08823 2.85714,0 0.23816,-0.238151 -0.23815,-1.190421 0,-1.428571 0.16836,-0.168359 0.47619,0 0.71429,0 0.2381,-0.238096 0.52751,-0.43412 0.71429,-0.714286 0.29532,-0.442981 0.54592,-0.923495 0.71428,-1.428572 0.0753,-0.225877 -0.16836,-0.545927 0,-0.714285 0.16836,-0.168359 0.54593,0.168358 0.71429,0 0.16836,-0.168359 0,-0.476191 0,-0.714286 0,-0.238095 0,-0.952381 0,-0.714286 0,0.476191 -0.47619,1.428572 0,1.428572 4.86357,0 -0.92752,-2.142857 2.14285,-2.142857"
         style="fill:none;stroke:#ffffff;stroke-width:3.59999989999999980;stroke-linecap:butt;stroke-linejoin:miter;stroke-miterlimit:4;stroke-opacity:1;stroke-dasharray:none;fill-opacity:1" />
      <path
         transform="translate(65.786831,335.15794)"
         inkscape:connector-curvature="0"
         id="path3827"
         d="m 165.71429,54.907941 c 0,1.428571 0.28016,2.884885 0,4.285714 1.99577,2.777767 -1.80614,2.224559 -2.14286,3.571429 -0.17324,0.692959 0.31944,1.50398 0,2.142857 -0.2381,0.47619 -0.98559,0.418965 -1.42857,0.714286 -0.28017,0.186777 -0.5637,0.413116 -0.71429,0.714285 -0.33672,0.673435 -0.37757,1.469422 -0.71428,2.142857 -0.15059,0.30117 -0.47619,0.476191 -0.71429,0.714286 -0.2381,0.476191 -0.50456,0.939221 -0.71429,1.428572 -0.50507,1.178511 -0.74901,2.48414 -1.42857,3.571428 -0.53538,0.856608 -1.53676,1.334735 -2.14285,2.142857 -0.14286,0.190476 0.10648,0.501327 0,0.714286 -0.15059,0.301169 -0.56371,0.413116 -0.71429,0.714286 -0.33672,0.673435 -0.34073,1.489136 -0.71429,2.142857 -6.329,11.075763 0.83841,-2.329043 -3.57142,4.285714 -0.13208,0.198107 0.10648,0.501327 0,0.714286 -0.16995,0.33989 -1.25863,1.088681 -1.42858,1.428571 -0.43871,0.877439 -0.35274,2.31923 -1.42857,2.857143 -0.21296,0.10648 -0.48841,-0.07529 -0.71428,0 -0.50508,0.168359 -0.95238,0.476191 -1.42857,0.714286 -0.47619,0.238095 -1.02435,0.367806 -1.42858,0.714286 -1.27827,1.095664 -2.38095,2.380952 -3.57142,3.571428 -0.71429,0.714286 -1.58253,1.30236 -2.14286,2.142857 -0.41765,0.62647 -0.29664,1.516387 -0.71429,2.142857 -1.82351,2.735261 -2.08962,1.594951 -4.28571,3.571431 -1.75196,1.57676 -3.52758,3.15947 -5,5 -0.47035,0.58793 -0.44992,1.43787 -0.71429,2.14286 -0.4502,1.20054 -0.74901,2.48414 -1.42857,3.57142 -0.53538,0.85661 -1.74494,1.21438 -2.14286,2.14286 -0.37516,0.87538 0.0948,1.90949 0,2.85714 -0.1441,1.44109 -0.62924,2.83994 -0.71428,4.28572 -0.1538,2.61453 0.32485,5.25832 0,7.85714 -0.15904,1.27228 -1.15043,2.31978 -1.42857,3.57143 -0.2066,0.9297 0,1.90476 0,2.85714 0,1.19048 0,2.38095 0,3.57143 0,3.09524 0,6.19048 0,9.28572 0,3.57142 0,7.14285 0,10.71428 0,0.50834 0,3.4046 0,3.57143 0,0.23809 0.0577,0.4833 0,0.71429 -0.18261,0.73044 -0.37757,1.46942 -0.71429,2.14285 -0.24041,0.48082 -1.96467,2.6805 -2.14286,3.57143 -0.14008,0.70042 0.11743,1.43829 0,2.14286 -0.12378,0.74268 -0.47619,1.42857 -0.71428,2.14286 -0.47619,2.38095 -1.05936,4.74298 -1.42857,7.14285 -0.10862,0.70598 0,1.42857 0,2.14286 0,1.66667 0,3.33333 0,5 0,13.84592 0,31.993 0,43.57143 0,0.37351 0.0939,2.66933 0,2.85714 -1.69224,3.38447 0.41816,-4.82593 -2.14286,2.85714 -0.98887,2.96661 -0.71429,6.22191 -0.71429,9.28572 0,1.42857 0,2.85714 0,4.28571 0,0.2381 0.2381,0.71429 0,0.71429 -0.23809,0 0,-0.47619 0,-0.71429"
         style="fill:none;stroke:#ffffff;stroke-width:3.59999989999999980;stroke-linecap:butt;stroke-linejoin:miter;stroke-miterlimit:4;stroke-opacity:1;stroke-dasharray:none;fill-opacity:1" />
      <path
         transform="translate(65.786831,335.15794)"
         inkscape:connector-curvature="0"
         id="path3829"
         d="m 187.14286,54.193655 c 0,2.619048 0,5.238095 0,7.857143 0,0.238095 0,0.47619 0,0.714286 0,0.238095 -0.21296,0.607806 0,0.714285 0.32372,0.16186 3.35117,-0.165195 3.57143,0 0.80812,0.606092 1.35406,1.51182 2.14285,2.142858 0.41574,0.332585 1.00266,0.394847 1.42857,0.714285 0.0705,0.05284 2.60242,2.475052 2.85715,2.857143 0.29532,0.442981 0.44037,0.972045 0.71428,1.428572 0.44168,0.736127 1.04466,1.375023 1.42857,2.142857 0.81093,1.621846 1.46943,3.316412 2.14286,5 0.27963,0.699071 0.32691,1.497231 0.71429,2.142857 0.34648,0.577466 1.24356,0.781047 1.42857,1.428571 0.32705,1.144672 -0.14766,2.390146 0,3.571429 0.0934,0.747109 0.47619,1.428571 0.71428,2.142857 0,1.428571 -0.17719,2.868174 0,4.285714 0.30117,2.409355 1.10767,4.736053 1.42858,7.142857 0,1.190477 0,2.380951 0,3.571431 0.23809,0.47619 0.60987,0.90651 0.71428,1.42857 0.14008,0.70041 -0.17324,1.4499 0,2.14286 0.0817,0.32666 0.51226,0.44491 0.71429,0.71428 0.51508,0.68677 0.82154,1.53583 1.42857,2.14286 1.19047,1.19048 0.71428,-2.14286 0.71428,-1.42857 0,0.95238 0.11813,1.91211 0,2.85714 -0.12176,0.97411 -0.50132,1.89883 -0.71428,2.85714 -0.26337,1.18515 -0.4413,2.38847 -0.71429,3.57143 -0.44148,1.91311 -1.20563,3.7636 -1.42857,5.71429 -0.73194,6.40449 -1.09843,12.84799 -1.42857,19.28571 -0.14633,2.8534 0,5.71429 0,8.57143 0,9.28572 0,18.57143 0,27.85714 0,4.00773 -0.45175,4.81078 1.42857,8.57143 0.10648,0.21296 0.47619,0 0.71429,0 0.23809,0 0.6078,0.21296 0.71428,0 0.67344,-1.34687 1.01489,-5.73362 1.42857,-4.28571 0.85033,2.97614 0,6.19047 0,9.28571 0,5 0,10 0,15 0,4.28572 0,8.57143 0,12.85715 0,1.19047 -0.14766,2.39014 0,3.57142 0.0934,0.74711 0.53168,1.41242 0.71429,2.14286 0.15216,0.60862 0,1.5131 0,2.14286 0,1.66666 0,3.33333 0,5 0,6.66666 0,13.33333 0,20"
         style="fill:none;stroke:#ffffff;stroke-width:3.59999989999999980;stroke-linecap:butt;stroke-linejoin:miter;stroke-miterlimit:4;stroke-opacity:1;stroke-dasharray:none;fill-opacity:1" />
      <path
         transform="translate(65.786831,335.15794)"
         inkscape:connector-curvature="0"
         id="path3831"
         d="m 122.85714,114.19366 c 0,6.04897 0.37646,1.35129 -0.71428,5.71428 -0.75257,3.01026 3.47204,-5.00465 -1.42857,3.57143 -0.42592,0.74536 -1.04466,1.37502 -1.42858,2.14286 -0.33671,0.67343 -0.32691,1.49723 -0.71428,2.14285 -0.34648,0.57747 -0.95238,0.95238 -1.42857,1.42858 -0.71429,1.19047 -1.52198,2.32967 -2.14286,3.57142 -3.30172,6.60344 -2.49866,6.60513 -5.71429,11.42858 -0.64709,0.97063 -2.93254,3.72222 -3.57142,5 -0.33672,0.67343 -0.29664,1.51638 -0.71429,2.14285 -0.56033,0.8405 -1.64168,1.2658 -2.14286,2.14286 -1.42735,2.49786 -2.20748,5.3241 -3.571426,7.85714 -0.319275,0.59294 -1.163292,0.80959 -1.428571,1.42857 -0.478239,1.11589 -0.288004,2.43468 -0.714286,3.57143 -0.301427,0.80381 -1.109745,1.3458 -1.428571,2.14286 -0.176853,0.44213 0.06734,0.95717 0,1.42857 -0.171693,1.20185 -0.542593,2.36958 -0.714286,3.57143 -0.06734,0.4714 0.176853,0.98644 0,1.42857 -0.318826,0.79707 -1.157101,1.32845 -1.428571,2.14286 -0.225877,0.67763 0,1.42857 0,2.14286 0,0.95238 0.105173,1.91058 0,2.85714 -0.299563,2.69606 -1.713242,6.92283 -2.142857,9.28571 -0.127776,0.70277 0,1.42857 0,2.14286 -0.238096,0.71429 -0.566626,1.40455 -0.714286,2.14286 -0.233472,1.16735 0.212959,2.40015 0,3.57143 -0.351221,1.93171 -0.911971,3.82008 -1.428572,5.71428 -0.198107,0.72639 -0.590506,1.40018 -0.714285,2.14286 -0.117428,0.70457 0,1.42857 0,2.14286 0,0.47619 0.150584,0.97681 0,1.42857 -0.10648,0.31944 -0.541046,0.42555 -0.714286,0.71428 -4.459029,7.43172 0.812908,-0.91153 -2.142857,5 -0.383917,0.76784 -1.044655,1.37503 -1.428572,2.14286 -0.106479,0.21296 0.05775,0.4833 0,0.71429 -0.18261,0.73044 -0.377568,1.46942 -0.714285,2.14285 -1.417539,2.83508 -0.225761,-3.15691 -1.428572,2.85715 -0.09339,0.46694 0.150585,0.97681 0,1.42857 -0.106479,0.31944 -0.607806,0.39484 -0.714285,0.71428 C 79.957045,230.75109 80,231.33793 80,234.90794"
         style="fill:none;stroke:#ffffff;stroke-width:3.59999989999999980;stroke-linecap:butt;stroke-linejoin:miter;stroke-miterlimit:4;stroke-opacity:1;stroke-dasharray:none;fill-opacity:1" />
      <path
         transform="translate(65.786831,335.15794)"
         inkscape:connector-curvature="0"
         id="path3833"
         d="m 117.14286,200.62223 c -3.19439,0.67448 0.63887,3.00796 0,4.28571 -0.15059,0.30117 -0.5637,0.41312 -0.71429,0.71429 -0.10648,0.21296 0.10648,0.50132 0,0.71428 -0.30117,0.60234 -1.21561,0.7897 -1.42857,1.42857 -0.15058,0.45176 0.21296,1.00266 0,1.42858 -0.5324,1.06479 -1.39917,1.92753 -2.14286,2.85714 -0.21034,0.26293 -0.6078,0.39485 -0.71428,0.71428 -1.63451,4.90351 2.73496,-3.32706 -0.71429,3.57143 -0.38392,0.76784 -1.04465,1.37503 -1.42857,2.14286 -0.33672,0.67343 -0.37757,1.46942 -0.71429,2.14286 -1.09627,2.19254 -2.47515,4.23602 -3.57142,6.42857 -0.10648,0.21296 0.10648,0.50133 0,0.71428 -0.15059,0.30117 -0.56371,0.41312 -0.71429,0.71429 -0.10648,0.21296 0.21296,0.60781 0,0.71429 -0.42592,0.21295 -1.00265,-0.21296 -1.42857,0 -0.21296,0.10647 0.0884,0.49322 0,0.71428 -0.39546,0.98864 -0.7634,2.02568 -1.42857,2.85714 -0.33259,0.41574 -1.05211,0.33783 -1.42857,0.71429 -0.0458,0.0458 -1.339875,2.72409 -1.428576,2.85714 -0.373554,0.56033 -1.082092,0.85111 -1.428571,1.42857 -0.547832,0.91306 -1.009128,1.87845 -1.428571,2.85715 -0.05925,0.13824 -1.40162,4.24528 -1.428572,4.28571 -0.560332,0.8405 -1.496173,1.36684 -2.142857,2.14286 -0.549576,0.65949 -1.044654,1.37502 -1.428571,2.14286 -0.10648,0.21295 0,0.95238 0,0.71428 0,-0.71428 0.225877,-1.46523 0,-2.14286 -0.168359,-0.50507 -1.190477,0.2381 -1.428572,0.71429 -0.336717,0.67343 -0.262532,1.54052 -0.714286,2.14286 -0.319438,0.42591 -1.019572,0.37345 -1.428571,0.71428 -5.263247,4.38604 -1.84897,0.96731 -2.857143,5 -0.163332,0.65333 -1.127402,0.82624 -1.428571,1.42857 -0.10648,0.21296 0.106479,0.50133 0,0.71429 -0.150585,0.30117 -0.607807,0.39485 -0.714286,0.71429 -0.0011,0.003 6.82e-4,2.14217 0,2.14285 -0.168359,0.16836 -0.607806,-0.21296 -0.714286,0 -0.319438,0.63888 0,1.42857 0,2.14286"
         style="fill:none;stroke:#ffffff;stroke-width:3.59999989999999980;stroke-linecap:butt;stroke-linejoin:miter;stroke-miterlimit:4;stroke-opacity:1;stroke-dasharray:none;fill-opacity:1" />
      <path
         transform="translate(65.786831,335.15794)"
         inkscape:connector-curvature="0"
         id="path3835"
         d="m 212.85714,108.47937 c 0,2.14286 0,4.28571 0,6.42857 0,0.47619 -0.15058,0.97682 0,1.42857 0.10648,0.31944 0.5637,0.41312 0.71429,0.71429 0.10648,0.21296 -0.14286,0.52381 0,0.71428 0.60609,0.80813 1.42857,1.42858 2.14286,2.14286 0.23809,0.2381 0.5275,0.43412 0.71428,0.71429 0.29532,0.44298 0.33783,1.05211 0.71429,1.42857 0.37646,0.37646 1.15465,0.25776 1.42857,0.71428 1.23859,2.06432 0.45885,2.95653 0.71428,5 0.15059,1.20468 0.33037,2.41968 0.71429,3.57143 0.33672,1.01015 0.91146,1.92635 1.42857,2.85715 0.67423,1.21361 1.70383,2.25435 2.14286,3.57142 0.30117,0.90351 -0.31697,1.95906 0,2.85715 1.13458,3.21466 3.05013,6.1085 4.28571,9.28571 0.44003,1.1315 0.38076,2.40409 0.71429,3.57143 0.14626,0.51191 0.60987,0.90651 0.71428,1.42857 0.14009,0.70042 -0.22587,1.46523 0,2.14286 0.27147,0.81441 1.04466,1.37502 1.42858,2.14286 0.33671,0.67343 0.47619,1.42857 0.71428,2.14285 0.47619,1.42857 0.95238,2.85715 1.42857,4.28572 0.2381,0.71428 0.4177,1.45081 0.71429,2.14285 0.41944,0.9787 1.13605,1.83332 1.42857,2.85715 0.19623,0.6868 0,1.42857 0,2.14285 0,0.95238 -0.13469,1.91434 0,2.85715 0.10648,0.74535 0.60781,1.3975 0.71429,2.14285 0.13468,0.94281 -0.14482,1.91584 0,2.85715 -0.83048,3.26424 1.56528,5.68354 2.14285,8.57143 0.0934,0.46694 -0.21296,1.00265 0,1.42857 0.10648,0.21296 0.47619,0 0.71429,0 0.47619,0 1.00265,0.21296 1.42857,0 0.21296,-0.10648 0,-0.95238 0,-0.71429 0,2.72849 -0.15058,0.11195 0.71429,3.57143 0.29445,1.1778 0.5033,2.37585 0.71428,3.57143 0.47619,2.85714 0.95238,5.71428 1.42857,8.57143 0.47619,0.71428 1.1571,1.32844 1.42857,2.14285 0.22588,0.67763 -0.11742,1.43829 0,2.14286 0.12378,0.74268 0.53168,1.41242 0.71429,2.14286 0.21429,0.85714 -0.42857,1.14286 0,2.14286 0.71429,1.19047 1.42857,2.38095 2.14286,3.57142 0,0.47619 -0.17686,0.98644 0,1.42858 0.31882,0.79706 1.1571,1.32844 1.42857,2.14285 0.22588,0.67763 -0.11743,1.43829 0,2.14286 0.12378,0.74268 0.56662,1.40455 0.71428,2.14286 0.0934,0.46694 0,0.95238 0,1.42857 0,1.19047 0,2.38095 0,3.57143 0,0.23809 -0.0753,0.48841 0,0.71428 0.16836,0.50508 0.58516,0.91207 0.71429,1.42857 0.11549,0.46198 -0.21296,1.00266 0,1.42858 0.33748,0.67496 1.1793,-0.46502 2.14286,-1.42858"
         style="fill:none;stroke:#ffffff;stroke-width:3.59999989999999980;stroke-linecap:butt;stroke-linejoin:miter;stroke-miterlimit:4;stroke-opacity:1;stroke-dasharray:none;fill-opacity:1" />
      <path
         transform="translate(65.786831,335.15794)"
         inkscape:connector-curvature="0"
         id="path3837"
         d="m 209.28571,185.62223 c 4.71139,0.49474 0.83539,2.90162 1.42858,4.28571 0.62916,1.46805 1.49417,2.82618 2.14285,4.28572 0.30579,0.68803 0.37757,1.46942 0.71429,2.14285 0.15058,0.30117 0.51225,0.44491 0.71428,0.71429 0.92752,1.23668 1.53855,2.21173 2.14286,3.57143 0.73644,1.65699 1.05489,3.54937 2.14286,5 0.45175,0.60234 1.61046,0.18189 2.14286,0.71428 0.53239,0.5324 0.29663,1.51639 0.71428,2.14286 0.56033,0.8405 1.49617,1.36684 2.14286,2.14286 0.54957,0.65949 0.91349,1.45608 1.42857,2.14285 0.20203,0.26938 0.52751,0.43412 0.71429,0.71429 0.29532,0.44298 0.3817,1.01284 0.71428,1.42857 0.63104,0.7888 1.51182,1.35406 2.14286,2.14286 0.99135,1.23918 0.25783,1.36236 1.42857,2.14286 0.65249,0.43499 1.73342,0.6097 2.14286,1.42857 0.33671,0.67343 0.53167,1.41241 0.71428,2.14285 0.0578,0.23099 -0.10648,0.50133 0,0.71429 0.15059,0.30117 0.60781,0.39485 0.71429,0.71429 0.15058,0.45175 -0.17685,0.98643 0,1.42857 0.31882,0.79706 1.1571,1.32844 1.42857,2.14285 0.22588,0.67763 -0.17324,1.4499 0,2.14286 0.0817,0.32667 0.5637,0.41312 0.71429,0.71429 0.08,0.16009 0,2.6874 0,2.85714 0,0.95238 0,1.90476 0,2.85714 0,0.2381 -0.16836,0.54593 0,0.71429 0.16835,0.16836 0.47619,0 0.71428,0"
         style="fill:none;stroke:#ffffff;stroke-width:3.59999989999999980;stroke-linecap:butt;stroke-linejoin:miter;stroke-miterlimit:4;stroke-opacity:1;stroke-dasharray:none;fill-opacity:1" />
      <path
         transform="translate(65.786831,335.15794)"
         inkscape:connector-curvature="0"
         id="path3839"
         d="m 117.14286,240.62223 c -0.71429,1.19047 -1.42857,2.38095 -2.14286,3.57143 0,0.23809 0.0753,0.4884 0,0.71428 -0.16836,0.50508 -0.58516,0.91207 -0.71429,1.42857 -0.11549,0.46198 0,0.95238 0,1.42857 0,0.2381 0.10648,0.50133 0,0.71429 -0.15058,0.30117 -0.5637,0.41312 -0.71428,0.71429 -0.10648,0.21295 0.0577,0.48329 0,0.71428 -0.18261,0.73044 -0.63114,1.39454 -0.71429,2.14286 -0.15776,1.41983 0.39246,2.91211 0,4.28571 -0.14626,0.51192 -1.05211,0.33783 -1.42857,0.71429 -0.16836,0.16836 0.10648,0.50133 0,0.71428 -0.15058,0.30117 -0.5637,0.41312 -0.71428,0.71429 -0.10648,0.21296 0.0577,0.4833 0,0.71429 -0.18261,0.73044 -0.4177,1.45081 -0.71429,2.14285 -0.41944,0.9787 -1.13605,1.83332 -1.42857,2.85715 -0.39246,1.3736 0.28016,2.88488 0,4.28571 -0.10441,0.52206 -0.60988,0.90651 -0.71429,1.42857 -0.14008,0.70042 0.11743,1.43829 0,2.14286 -0.12378,0.74268 -0.5905,1.40018 -0.71428,2.14286 -0.11743,0.70456 0.26528,1.47965 0,2.14285 -0.25011,0.62527 -1.1633,0.80959 -1.42857,1.42857 -0.47824,1.11589 -0.5147,2.3739 -0.71429,3.57143 -0.0391,0.23486 0.10648,0.50133 0,0.71429 -0.15058,0.30117 -0.47619,0.47619 -0.71429,0.71428 -0.47619,0.2381 -1.19047,0.2381 -1.42857,0.71429 -0.31944,0.63888 0.17324,1.4499 0,2.14286 -0.0817,0.32666 -0.57753,0.40659 -0.71428,0.71428 -0.8262,1.85896 -1.38734,3.8255 -2.14286,5.71429 -0.197727,0.49432 -0.638993,0.90152 -0.714286,1.42857 -0.168358,1.17851 0.258251,2.4093 0,3.57143 -0.230986,1.03944 -1.197585,1.8177 -1.428571,2.85714 -0.258251,1.16213 0.131466,2.38823 0,3.57143 -0.10841,0.97569 -0.632761,1.87884 -0.714286,2.85714 -0.158182,1.89818 0.340734,3.84025 0,5.71429 -0.153567,0.84462 -0.952381,1.42857 -1.428571,2.14286 -0.238095,1.19047 -0.542593,2.36957 -0.714286,3.57142 -0.396825,2.77778 0.595238,0 0,3.57143 -0.12378,0.74268 -0.566625,1.40456 -0.714286,2.14286 -0.198412,0.99206 0.297619,2.67857 0,3.57143 -0.27147,0.81441 -1.192733,1.31742 -1.428571,2.14286 -0.261639,0.91573 0,1.90476 0,2.85714 0,2.38095 0,4.7619 0,7.14286 0,0.32168 0.108691,1.92547 0,2.14285 -0.150585,0.30117 -0.63262,0.38762 -0.714286,0.71429 -0.731382,2.92553 0.996822,1.43387 -0.714285,4.28571 -0.34648,0.57747 -1.178464,0.80331 -1.428572,1.42857 -0.265279,0.6632 0.06467,1.43151 0,2.14286 -0.173791,1.9117 -0.56706,3.80036 -0.714286,5.71429 -0.176249,2.29123 0,4.82186 0,7.14285 0,0.66667 0,4.66667 0,5 0,1.42858 0.309901,2.89117 0,4.28572 -0.186227,0.83802 -1.157101,1.32844 -1.428571,2.14286 -0.225877,0.67763 0,1.42857 0,2.14285 0,0.47619 0,0.95238 0,1.42857 0,1.90477 0,3.80953 0,5.71429"
         style="fill:none;stroke:#ffffff;stroke-width:3.59999989999999980;stroke-linecap:butt;stroke-linejoin:miter;stroke-miterlimit:4;stroke-opacity:1;stroke-dasharray:none;fill-opacity:1" />
      <path
         transform="translate(65.786831,335.15794)"
         inkscape:connector-curvature="0"
         id="path3841"
         d="m 211.42857,236.33651 c 0.2381,0.95238 0.47619,1.90476 0.71429,2.85715 0,0.71428 -0.11743,1.43829 0,2.14285 0.90211,5.41265 0.14551,0.29102 1.42857,2.85715 0.10648,0.21295 -0.10648,0.50132 0,0.71428 0.15058,0.30117 0.5637,0.41312 0.71428,0.71429 0.22448,0.44894 -0.22447,2.4082 0,2.85714 0.30117,0.60234 1.05502,0.86824 1.42858,1.42857 0.15045,0.22568 -0.0595,3.83937 0,4.28572 0.41389,3.10418 0.94015,6.19238 1.42857,9.28571 0.22587,1.43055 0.36302,2.88068 0.71428,4.28571 0.36522,1.46089 1.08997,2.81843 1.42857,4.28572 0.37858,1.64047 0.27131,3.37573 0.71429,5 0.28017,1.02727 1.21975,1.81302 1.42857,2.85714 0.28017,1.40083 0,2.85714 0,4.28572 0.2381,1.66666 0.33572,3.35952 0.71429,5 0.67721,2.93456 2.31839,5.60831 2.85714,8.57142 0.21296,1.17128 -0.14766,2.39015 0,3.57143 0.0934,0.74711 0.60781,1.3975 0.71429,2.14286 0.13468,0.94281 0,1.90476 0,2.85714 0,0.95238 0,1.90476 0,2.85715 0,1.19047 0.13146,2.38823 0,3.57142 -0.10841,0.97569 -0.60588,1.88146 -0.71429,2.85715 -0.13147,1.18319 0,2.38095 0,3.57143 0,2.86213 0,5.70929 0,8.57142 0,8.90658 0.10957,-0.43405 -0.71429,13.57143 -0.11185,1.90148 0,3.80953 0,5.71429 0,2.85714 0,5.71428 0,8.57143 0,12.14285 0,24.28571 0,36.42857"
         style="fill:none;stroke:#ffffff;stroke-width:3.59999989999999980;stroke-linecap:butt;stroke-linejoin:miter;stroke-miterlimit:4;stroke-opacity:1;stroke-dasharray:none;fill-opacity:1" />
      <path
         transform="translate(65.786831,335.15794)"
         inkscape:connector-curvature="0"
         id="path3843"
         d="m 90,386.33651 c 1.190476,0 2.392917,0.16836 3.571429,0 0.527046,-0.0753 0.906513,-0.60987 1.428571,-0.71428 0.700415,-0.14009 1.449898,0.17324 2.142857,0 0.326664,-0.0817 0.394848,-0.60781 0.714286,-0.71429 0.451754,-0.15058 0.952381,0 1.428571,0 0.476191,0 0.952386,0 1.428576,0 1.90476,0 3.82866,0.26938 5.71428,0 0.33333,-0.0476 0.38762,-0.63262 0.71429,-0.71428 7.52095,-1.88024 -3.88339,2.65598 4.28571,-1.42858 0.21296,-0.10648 0.47619,0 0.71429,0 0.47619,0 0.95238,0 1.42857,0 1.90476,0 3.80952,0 5.71428,0 3.33334,0 6.66667,0 10,0 1.78177,0 3.99224,-0.15655 5.71429,0 11.86382,1.07853 0.70458,0.2027 9.28571,1.42858 0.47141,0.0673 0.97071,-0.13082 1.42858,0 1.23284,0.35224 2.33858,1.07632 3.57142,1.42857 0.45787,0.13082 0.96163,-0.0934 1.42858,0 0.7383,0.14766 1.41241,0.53167 2.14285,0.71428 0.23099,0.0577 0.47619,0 0.71429,0 1.42857,0 2.85714,0 4.28571,0 10.95238,0 21.90476,0 32.85715,0 1.42857,0 2.90748,-0.37588 4.28571,0 1.3394,0.36529 2.39413,1.40705 3.57143,2.14286 0.72798,0.45499 1.53583,0.82155 2.14286,1.42857 6.08053,6.08053 -2.04114,-0.40837 2.85714,2.85714 0.28016,0.18678 0.39485,0.60781 0.71428,0.71429 1.15176,0.38392 2.36676,0.5637 3.57143,0.71429 0.94503,0.11812 1.90476,0 2.85715,0 0.23809,0 0.54592,-0.16836 0.71428,0 0.16836,0.16835 -0.16836,0.54592 0,0.71428 0.16836,0.16836 0.47619,0 0.71429,0 0.47619,0 1.03235,-0.26414 1.42857,0 0.44298,0.29532 0.2713,1.13325 0.71428,1.42857 0.39622,0.26415 0.95239,0 1.42858,0 0.23809,0 0.47619,0 0.71428,0 0.28237,0 3.26637,0.15253 3.57143,0 0.74517,-0.37258 1.1296,-1.72754 1.42857,-1.42857 0.2381,0.2381 -1.051,0.71429 -0.71428,0.71429 3.60843,0 1.09789,-0.54895 2.85714,-1.42857 2.10201,-1.05101 -0.94042,1.6547 1.42857,-0.71429"
         style="fill:none;stroke:#ffffff;stroke-width:3.59999989999999980;stroke-linecap:butt;stroke-linejoin:miter;stroke-miterlimit:4;stroke-opacity:1;stroke-dasharray:none;fill-opacity:1" />
      <path
         transform="translate(65.786831,335.15794)"
         inkscape:connector-curvature="0"
         id="path3845"
         d="m 73.571429,236.33651 c 0.952381,0.2381 3.095238,-0.23809 2.857143,0.71429 -0.238096,0.95238 -3.551304,-1.40845 -2.857143,-0.71429 0.906639,0.90664 2.504588,0.71735 3.571428,1.42857 0.442981,0.29532 0.298554,1.09599 0.714286,1.42858 0.831465,0.66517 1.868506,1.03311 2.857143,1.42857 0.221066,0.0884 0.545927,-0.16836 0.714286,0 1.734858,1.73486 -0.212405,1.04887 1.428571,2.14285 0.442981,0.29532 0.923495,0.54593 1.428571,0.71429 0.225877,0.0753 0.545927,-0.16836 0.714286,0 0.168359,0.16836 -0.106479,0.50133 0,0.71429 1.486343,2.97268 -0.04931,-0.7636 1.428572,0.71428 0.168358,0.16836 -0.168359,0.54593 0,0.71429 0.168358,0.16836 0.714285,-0.2381 0.714285,0 0,0.23809 -0.47619,0 -0.714285,0"
         style="fill:none;stroke:#ffffff;stroke-width:3.59999989999999980;stroke-linecap:butt;stroke-linejoin:miter;stroke-miterlimit:4;stroke-opacity:1;stroke-dasharray:none;fill-opacity:1" />
      <path
         transform="translate(65.786831,335.15794)"
         inkscape:connector-curvature="0"
         id="path3847"
         d="m 250.71429,234.90794 c -0.47619,0.2381 -0.9235,0.54593 -1.42858,0.71429 -0.59154,0.19718 -3.22595,-0.23032 -3.57142,0 -0.56034,0.37355 -0.82624,1.1274 -1.42858,1.42857 -0.42591,0.21296 -0.95238,0 -1.42857,0 -1.19047,0 -2.38095,0 -3.57143,0 -0.47619,1.42857 -1.01488,2.83781 -1.42857,4.28571 -0.0654,0.22894 0,0.47619 0,0.71429 0,0.47619 0,0.95238 0,1.42857 0,0.95238 0,1.90476 0,2.85714 0,3.57143 0,7.14286 0,10.71429"
         style="fill:none;stroke:#ffffff;stroke-width:3.59999989999999980;stroke-linecap:butt;stroke-linejoin:miter;stroke-miterlimit:4;stroke-opacity:1;stroke-dasharray:none;fill-opacity:1" />
      <path
         transform="translate(65.786831,335.15794)"
         inkscape:connector-curvature="0"
         id="path3849"
         d="m 243.57143,241.33651 c 1.23397,0.0175 0.4654,5.80636 0.71428,6.42857 0.25011,0.62527 1.1633,0.80959 1.42858,1.42858 2.91076,6.79179 -0.4956,0.87476 0.71428,5.71428 0.0817,0.32667 0.5637,0.41312 0.71429,0.71429 0.10648,0.21296 -0.21296,0.6078 0,0.71428 0.42592,0.21296 0.95238,0 1.42857,0"
         style="fill:none;stroke:#ffffff;stroke-width:3.59999989999999980;stroke-linecap:butt;stroke-linejoin:miter;stroke-miterlimit:4;stroke-opacity:1;stroke-dasharray:none;fill-opacity:1" />
      <path
         transform="translate(65.786831,335.15794)"
         inkscape:connector-curvature="0"
         id="path3851"
         d="m 247.85714,238.47937 c 0.47619,0.95238 2.38096,2.38095 1.42857,2.85714 -0.95238,0.47619 -2.18149,-3.61006 -1.42857,-2.85714 4.24029,4.24029 1.25282,2.15411 2.14286,5.71429 0.0817,0.32666 0.5637,0.41311 0.71429,0.71428 0.10648,0.21296 -0.0577,0.4833 0,0.71429 0.18261,0.73044 0.53167,1.41241 0.71428,2.14285 0.0577,0.23099 0,0.47619 0,0.71429 0,0.47619 -0.13082,0.9707 0,1.42857 0.35224,1.23285 1.02311,2.35504 1.42857,3.57143 0.0753,0.22588 0,0.95238 0,0.71429 0,-0.71429 0,-1.42858 0,-2.14286"
         style="fill:none;stroke:#ffffff;stroke-width:3.59999989999999980;stroke-linecap:butt;stroke-linejoin:miter;stroke-miterlimit:4;stroke-opacity:1;stroke-dasharray:none;fill-opacity:1" />
      <path
         transform="translate(65.786831,335.15794)"
         inkscape:connector-curvature="0"
         id="path3853"
         d="m 252.85714,233.47937 c 1.42857,1.42857 2.85715,2.85714 4.28572,4.28571 0.23809,0.2381 0.41311,0.5637 0.71428,0.71429 1.75925,0.87963 -0.64481,-2.07338 2.14286,0.71429 0.0331,0.0331 1.59958,2.67605 2.14286,2.85714 0.45175,0.15058 0.95238,0 1.42857,0"
         style="fill:none;stroke:#ffffff;stroke-width:3.59999989999999980;stroke-linecap:butt;stroke-linejoin:miter;stroke-miterlimit:4;stroke-opacity:1;stroke-dasharray:none;fill-opacity:1" />
      <path
         transform="translate(65.786831,335.15794)"
         inkscape:connector-curvature="0"
         id="path3855"
         d="m 233.57143,242.0508 c -0.25135,1.57564 0.40563,6.64024 0,7.85714 -0.16836,0.50508 -1.13325,0.27131 -1.42857,0.71429 -0.19436,0.29154 0.2099,3.15161 0,3.57143 -0.15059,0.30116 -0.5637,0.41311 -0.71429,0.71428 -0.10648,0.21296 0,0.47619 0,0.71429 0,0.23809 0,0.47619 0,0.71428"
         style="fill:none;stroke:#ffffff;stroke-width:3.59999989999999980;stroke-linecap:butt;stroke-linejoin:miter;stroke-miterlimit:4;stroke-opacity:1;stroke-dasharray:none;fill-opacity:1" />
      <path
         transform="translate(65.786831,335.15794)"
         inkscape:connector-curvature="0"
         id="path3857"
         d="m 75.714286,244.19366 c -0.476191,0.95238 -0.476191,3.33333 -1.428572,2.85714 -0.952381,-0.47619 2.438724,-3.19386 1.428572,-2.85714 -1.597192,0.53239 -2.380953,2.38095 -3.571429,3.57142 -0.47619,0.47619 -1.02451,0.88983 -1.428571,1.42858 -0.291702,0.38893 -0.700328,1.9001 -1.428572,2.14285 -0.451754,0.15059 -0.976817,-0.15058 -1.428571,0 -0.319438,0.10648 -0.476191,0.47619 -0.714286,0.71429 -0.238095,0.23809 -0.47619,0.47619 -0.714286,0.71428 -2.311215,2.31122 -2.142857,1.13271 -2.142857,2.85715"
         style="fill:none;stroke:#ffffff;stroke-width:3.59999989999999980;stroke-linecap:butt;stroke-linejoin:miter;stroke-miterlimit:4;stroke-opacity:1;stroke-dasharray:none;fill-opacity:1" />
      <path
         transform="translate(65.786831,335.15794)"
         inkscape:connector-curvature="0"
         id="path3859"
         d="m 80,248.47937 c -1.465295,1.47092 -2.342525,3.36146 -3.571428,5 -0.202031,0.26937 -0.63262,0.38762 -0.714286,0.71429 -0.17324,0.69295 0.17324,1.44989 0,2.14285 -0.08167,0.32667 -0.563701,0.41312 -0.714286,0.71429 -0.106479,0.21296 0.07529,0.48841 0,0.71428 -2.023459,4.04692 0.266199,-1.06479 -0.714286,2.85715 -0.820765,3.28306 -0.714285,0.16206 -0.714285,2.14285"
         style="fill:none;stroke:#ffffff;stroke-width:3.59999989999999980;stroke-linecap:butt;stroke-linejoin:miter;stroke-miterlimit:4;stroke-opacity:1;stroke-dasharray:none;fill-opacity:1" />
      <path
         transform="translate(65.786831,335.15794)"
         inkscape:connector-curvature="0"
         id="path3861"
         d="m 80,256.33651 c 0,1.42857 0,2.85715 0,4.28572 0,2.21208 0.311705,4.37659 -0.714286,6.42857 -0.150584,0.30117 -0.563701,0.41311 -0.714285,0.71428 -0.10648,0.21296 0.106479,0.50133 0,0.71429 -0.476191,0.71429 -0.952381,1.42857 -1.428572,2.14286 0,0.23809 0.10648,0.50132 0,0.71428 -0.150584,0.30117 -0.377568,0.71429 -0.714285,0.71429 -0.238096,0 -0.238096,-0.71429 0,-0.71429 0.238095,0 0,0.47619 0,0.71429"
         style="fill:none;stroke:#ffffff;stroke-width:3.59999989999999980;stroke-linecap:butt;stroke-linejoin:miter;stroke-miterlimit:4;stroke-opacity:1;stroke-dasharray:none;fill-opacity:1" />
      <path
         transform="translate(65.786831,335.15794)"
         inkscape:connector-curvature="0"
         id="path3863"
         d="m 85,264.90794 c 0.780997,1.79222 0.714286,3.20898 0.714286,5"
         style="fill:none;stroke:#ffffff;stroke-width:3.59999989999999980;stroke-linecap:butt;stroke-linejoin:miter;stroke-miterlimit:4;stroke-opacity:1;stroke-dasharray:none;fill-opacity:1" />
      <path
         transform="translate(65.786831,335.15794)"
         inkscape:connector-curvature="0"
         id="path3865"
         d="m 125,381.33651 c 0,2.85715 0,5.71429 0,8.57143 0,0.95238 0.18678,1.92326 0,2.85714 -0.066,0.33018 -0.5637,0.41312 -0.71429,0.71429 -0.10648,0.21296 0,0.47619 0,0.71429 0,0.47619 0,0.95238 0,1.42857 0,1.66666 0,3.33333 0,5 0,0.23809 0,0.47619 0,0.71428 0,1.19048 0,2.38096 0,3.57143 0,0.71429 0.17324,1.4499 0,2.14286 -0.0817,0.32666 -0.5637,0.41311 -0.71428,0.71428 -0.18983,0.37966 0.18983,1.04892 0,1.42858 -0.15059,0.30116 -0.60781,0.39484 -0.71429,0.71428 -0.15058,0.45176 0,0.95238 0,1.42857 0,0.2381 0.13207,0.51618 0,0.71429 -0.37355,0.56033 -1.17846,0.8033 -1.42857,1.42857 -0.26528,0.6632 0.17324,1.4499 0,2.14286 -0.0817,0.32666 -0.5637,0.41311 -0.71428,0.71428 -0.21296,0.42592 0.15058,0.97682 0,1.42857 -0.16836,0.50508 -0.54593,0.9235 -0.71429,1.42858 -0.14986,0.44957 0,2.92759 0,3.57142"
         style="fill:none;stroke:#ffffff;stroke-width:3.59999989999999980;stroke-linecap:butt;stroke-linejoin:miter;stroke-miterlimit:4;stroke-opacity:1;stroke-dasharray:none;fill-opacity:1" />
      <path
         transform="translate(65.786831,335.15794)"
         inkscape:connector-curvature="0"
         id="path3867"
         d="m 117.14286,419.19366 c -0.47619,0.95238 -0.95238,1.90476 -1.42857,2.85714 -0.2381,0 -0.60781,-0.21296 -0.71429,0 -0.21296,0.42592 0.21296,1.00265 0,1.42857 -0.10648,0.21296 -0.54593,-0.16836 -0.71429,0 -0.16835,0.16836 0.10648,0.50133 0,0.71429 -0.15058,0.30116 -0.5637,0.41311 -0.71428,0.71428 -0.10648,0.21296 0.1225,0.51012 0,0.71429 -1.24457,2.07428 -3.2027,3.54826 -4.28572,5.71428 -1.16159,2.32318 -0.18032,1.69906 -1.42857,3.57143 -1.13612,1.70418 -2.39688,3.32207 -3.57143,5 -0.49229,0.70328 -1.04465,1.37502 -1.42857,2.14286 -0.33671,0.67343 -0.53167,1.41241 -0.71428,2.14286 -0.0577,0.23098 0.10648,0.50132 0,0.71428 -0.15059,0.30117 -0.5637,0.41312 -0.71429,0.71429 -0.10648,0.21296 0.16836,0.54592 0,0.71428 -0.37646,0.37646 -1.13325,0.27131 -1.42857,0.71429 -0.140222,0.21033 0,3.87477 0,4.28571 0,1.19048 0,2.38096 0,3.57143 0,0.47619 0,0.95238 0,1.42857 0,0.2381 -0.168359,0.54593 0,0.71429 0.16836,0.16836 0.47619,0 0.71429,0 0.23809,0 0.47619,0 0.71428,0 1.66667,0 3.33333,0 5,0"
         style="fill:none;stroke:#ffffff;stroke-width:3.59999989999999980;stroke-linecap:butt;stroke-linejoin:miter;stroke-miterlimit:4;stroke-opacity:1;stroke-dasharray:none;fill-opacity:1" />
      <path
         transform="translate(65.786831,335.15794)"
         inkscape:connector-curvature="0"
         id="path3869"
         d="m 145.71429,386.33651 c 0,1.90476 0,3.80953 0,5.71429 0,3.33333 0,6.66667 0,10 0,0.59581 0.10151,3.41916 0,3.57143 -0.37356,0.56033 -1.12741,0.82623 -1.42858,1.42857 -0.13041,0.26082 0.13903,3.4324 0,3.57143 -0.16835,0.16836 -0.54592,-0.16836 -0.71428,0 -0.063,0.063 0,2.7591 0,0.71428"
         style="fill:none;stroke:#ffffff;stroke-width:3.59999989999999980;stroke-linecap:butt;stroke-linejoin:miter;stroke-miterlimit:4;stroke-opacity:1;stroke-dasharray:none;fill-opacity:1" />
      <path
         transform="translate(65.786831,335.15794)"
         inkscape:connector-curvature="0"
         id="path3873"
         d="m 107.85714,456.33651 c 1.19048,0 2.38096,0 3.57143,0 0.2381,0 0.48841,0.0753 0.71429,0 1.76089,-0.58696 2.64051,-1.87002 4.28571,-2.85714 0.20417,-0.1225 0.50133,0.10648 0.71429,0 0.60234,-0.30117 0.88982,-1.02451 1.42857,-1.42857 0.68677,-0.51508 1.37502,-1.04466 2.14286,-1.42857 1.75925,-0.87963 -0.64481,2.07338 2.14285,-0.71429 0.16836,-0.16836 -0.21296,-0.60781 0,-0.71428 0.42592,-0.21296 0.97682,0.15058 1.42857,0 0.31944,-0.10648 0.41312,-0.56371 0.71429,-0.71429 0.21296,-0.10648 0.50133,0.10648 0.71429,0 1.3401,-0.67005 0.30543,-0.91632 0.71428,-2.14286 0.10648,-0.31944 0.47619,-0.47619 0.71429,-0.71428 0.23809,-0.2381 0.43412,-0.52751 0.71428,-0.71429 0.44298,-0.29532 1.10914,-0.28837 1.42857,-0.71428 0.45176,-0.60234 0.37757,-1.46943 0.71429,-2.14286 1.48634,-2.97269 -0.0493,0.7636 1.42857,-0.71429 0.16836,-0.16836 0,-0.47619 0,-0.71428 0.2381,-0.2381 0.43412,-0.52751 0.71429,-0.71429 2.85714,-1.90476 0.23809,0.71429 2.14285,-2.14286 0.37356,-0.56033 1.12741,-0.82623 1.42858,-1.42857 0.10648,-0.21296 -0.10648,-0.50132 0,-0.71428 0.15058,-0.30117 0.5637,-0.41312 0.71428,-0.71429 0.33672,-0.67343 0.26253,-1.54052 0.71429,-2.14286 0.31944,-0.42591 1.05211,-0.33782 1.42857,-0.71428 0.16836,-0.16836 -0.10648,-0.50133 0,-0.71429 0.15058,-0.30117 0.5637,-0.41311 0.71428,-0.71428 0.10648,-0.21296 -0.16835,-0.54593 0,-0.71429 0.16836,-0.16836 0.60781,0.21296 0.71429,0 0.21296,-0.42592 -0.15058,-0.97682 0,-1.42857 0.21296,-0.63888 1.1274,-0.82623 1.42857,-1.42857 0.10648,-0.21296 -0.10648,-0.50133 0,-0.71429 0.15059,-0.30117 0.5637,-0.41311 0.71429,-0.71428 0.10648,-0.21296 -0.21296,-0.60781 0,-0.71429 0.42592,-0.21296 1.09185,0.33672 1.42857,0 0.33672,-0.33672 -0.15059,-0.97682 0,-1.42857 0.74317,-2.22951 0.47619,0.2381 1.42857,-0.71429 0.33672,-0.33671 -0.33672,-1.09185 0,-1.42857 0.16836,-0.16836 0.54593,0.16836 0.71429,0 0.16835,-0.16836 0,-0.47619 0,-0.71428 0,-1.90476 0,-3.80953 0,-5.71429"
         style="fill:none;stroke:#ffffff;stroke-width:3.59999989999999980;stroke-linecap:butt;stroke-linejoin:miter;stroke-miterlimit:4;stroke-opacity:1;stroke-dasharray:none;fill-opacity:1" />
      <path
         transform="translate(65.786831,335.15794)"
         inkscape:connector-curvature="0"
         id="path3875"
         d="m 185,387.76508 c -0.47619,0.95239 -1.03312,1.86851 -1.42857,2.85715 -0.0884,0.22106 0,0.47619 0,0.71428 0,0.47619 0,0.95238 0,1.42857 0,1.66667 0,3.33334 0,5 0,5.95239 0,11.90477 0,17.85715"
         style="fill:none;stroke:#ffffff;stroke-width:3.59999989999999980;stroke-linecap:butt;stroke-linejoin:miter;stroke-miterlimit:4;stroke-opacity:1;stroke-dasharray:none;fill-opacity:1" />
      <path
         transform="translate(65.786831,335.15794)"
         inkscape:connector-curvature="0"
         id="path3877"
         d="m 202.14286,393.47937 c 0,1.90476 0,3.80952 0,5.71429 0,0.23809 0.10648,0.50132 0,0.71428 -0.15059,0.30117 -0.60781,0.39485 -0.71429,0.71429 -0.13167,0.39501 0,3.56639 0,4.28571 0,3.33333 0,6.66667 0,10"
         style="fill:none;stroke:#ffffff;stroke-width:3.59999989999999980;stroke-linecap:butt;stroke-linejoin:miter;stroke-miterlimit:4;stroke-opacity:1;stroke-dasharray:none;fill-opacity:1" />
      <path
         transform="translate(65.786831,335.15794)"
         inkscape:connector-curvature="0"
         id="path3879"
         d="m 184.28571,421.33651 c -0.9396,2.33371 -0.71428,4.70848 -0.71428,7.14286 0,0.71429 -0.19623,1.45605 0,2.14286 0.29252,1.02382 1.03312,1.8685 1.42857,2.85714 0.0884,0.22107 -0.10648,0.50133 0,0.71429 0.15058,0.30116 0.60781,0.39484 0.71429,0.71428 0.15058,0.45176 -0.15059,0.97682 0,1.42857 0.32884,0.98653 1.61779,0.72849 2.14285,1.42857 0.45176,0.60234 0.29664,1.51639 0.71429,2.14286 0.13207,0.19811 0.50133,-0.10648 0.71428,0 0.30117,0.15059 0.47619,0.47619 0.71429,0.71429 0.2381,0.23809 0.5637,0.41311 0.71429,0.71428 0.10648,0.21296 -0.10648,0.50133 0,0.71429 0.54699,1.09398 1.27286,0.55858 2.14285,1.42857 0.37646,0.37646 0.41897,0.98559 0.71429,1.42857 0.18678,0.28017 0.47619,0.47619 0.71428,0.71429 0.2381,0.23809 0.41312,0.5637 0.71429,0.71428 0.21296,0.10648 0.50133,-0.10648 0.71429,0 2.97268,1.48635 -0.7636,-0.0493 0.71428,1.42857 0.37646,0.37647 0.95238,0.47619 1.42857,0.71429"
         style="fill:none;stroke:#ffffff;stroke-width:3.59999989999999980;stroke-linecap:butt;stroke-linejoin:miter;stroke-miterlimit:4;stroke-opacity:1;stroke-dasharray:none;fill-opacity:1" />
      <path
         transform="translate(65.786831,335.15794)"
         inkscape:connector-curvature="0"
         id="path3881"
         d="m 202.85714,418.47937 c 0.0249,1.56127 -0.47578,5.47639 1.42857,6.42857 3.28307,1.64153 1.24341,-0.18517 2.85715,1.42857 2.27179,2.2718 5.37075,3.01089 7.85714,5 0.18592,0.14874 -0.16836,0.54593 0,0.71429 0.16836,0.16836 0.60781,-0.21296 0.71429,0 0.30346,0.60694 -0.23669,2.86138 0,3.57143 0.10648,0.31944 0.6078,0.39484 0.71428,0.71428 0.15059,0.45176 -0.26414,1.03236 0,1.42857 0.29532,0.44299 1.05211,0.33783 1.42857,0.71429 0.16836,0.16836 0,0.47619 0,0.71429 0,0.47619 0,0.95238 0,1.42857 0,1.19047 0,2.38095 0,3.57143 0,0.23809 0,0.47619 0,0.71428 0,0.2381 0.10648,0.50133 0,0.71429 -1.6345,3.269 0.29605,-3.03101 -1.42857,2.14285 -0.0753,0.22588 0.16836,0.54593 0,0.71429 -0.16836,0.16836 -0.47619,0 -0.71428,0 -1.42858,0 -2.85715,0 -4.28572,0 -2.61905,0 -5.23809,0 -7.85714,0 -0.47619,0 -1.09186,0.33672 -1.42857,0 -0.33672,-0.33672 0.15058,-0.97682 0,-1.42857 -0.74317,-2.22952 -0.47619,0.23809 -1.42857,-0.71429 -0.16836,-0.16836 0.16835,-0.54592 0,-0.71428 -0.16836,-0.16836 -0.65654,0.23098 -0.71429,0 -0.23099,-0.92395 0,-1.90476 0,-2.85715 0,-0.95238 0,-1.90476 0,-2.85714"
         style="fill:none;stroke:#ffffff;stroke-width:3.59999989999999980;stroke-linecap:butt;stroke-linejoin:miter;stroke-miterlimit:4;stroke-opacity:1;stroke-dasharray:none;fill-opacity:1" />
    </g>
    <text
       xml:space="preserve"
       style="font-size:40px;font-style:normal;font-weight:normal;line-height:125%;letter-spacing:0px;word-spacing:0px;fill:#000000;fill-opacity:1;stroke:none;font-family:Sans"
       x="848.52814"
       y="-590.67834"
       id="text3920"
       sodipodi:linespacing="125%"
       transform="translate(65.786831,335.15794)"><tspan
         sodipodi:role="line"
         id="tspan3922"
         x="848.52814"
         y="-590.67834">postać tańczy - porusza się po obszrze, technicznie taniec to filtry na postaci, </tspan><tspan
         sodipodi:role="line"
         x="848.52814"
         y="-540.67834"
         id="tspan3924">efekty z zakresu motion blur</tspan></text>
    <text
       xml:space="preserve"
       style="font-size:40px;font-style:normal;font-weight:normal;line-height:125%;letter-spacing:0px;word-spacing:0px;fill:#000000;fill-opacity:1;stroke:none;font-family:Sans"
       x="910.27441"
       y="-77.733528"
       id="text3926"
       sodipodi:linespacing="125%"><tspan
         sodipodi:role="line"
         id="tspan3928"
         x="910.27441"
         y="-77.733528">W pierszym etapie pojawia sie w losowych miejscach postać szatana, user ma zapamiętac miejsca</tspan><tspan
         sodipodi:role="line"
         x="910.27441"
         y="-27.73353"
         id="tspan3930">i nazrysowac pole za które nie moze wyjść żeby nie dotknąć złego</tspan></text>
    <g
       id="g3982"
       style="stroke:#d33d3d;stroke-width:6.80000019;stroke-miterlimit:4;stroke-opacity:1;stroke-dasharray:none"
       transform="matrix(0.30586226,0,0,0.27314133,195.03355,612.33224)">
      <path
         inkscape:connector-curvature="0"
         id="path3934"
         d="m 1190.7646,547.9927 c 19.0476,0 38.0952,0 57.1428,0 10.4762,0 20.9524,0 31.4286,0 1.9729,0 10.5599,-0.43434 11.4286,0 3.0713,1.53567 5.5001,4.17862 8.5714,5.71429 0.8518,0.42591 1.9332,-0.23099 2.8571,0 2.9218,0.73044 5.6756,2.02976 8.5715,2.85714 3.7756,1.07877 8.0614,0.83684 11.4285,2.85714 1.8261,1.09567 1.1535,4.43653 2.8572,5.71429 2.4093,1.80701 5.8777,1.51027 8.5714,2.85714 1.2047,0.60234 1.9048,1.90476 2.8571,2.85714 0.9524,0.95238 1.9048,1.90477 2.8572,2.85715 2.8571,2.85714 6.1471,5.33894 8.5714,8.57142 0.7737,1.03163 -0.6984,7.17458 0,8.57143 0.6024,1.20468 2.4312,1.57939 2.8572,2.85715 0.6023,1.80701 0,3.80952 0,5.71428 0,3.80953 0,7.61905 0,11.42857 0,1.49406 0.3756,10.67731 0,11.42857 -0.6024,1.20468 -1.9048,1.90477 -2.8572,2.85715 -1.9047,1.90476 -3.3049,4.50961 -5.7143,5.71428 -3.5122,1.75611 -7.7826,1.39878 -11.4285,2.85715 -2.5011,1.00043 -3.1588,4.86245 -5.7143,5.71428 -2.6422,0.88073 -15.2605,-0.94119 -17.1429,0 -1.2047,0.60234 -1.5794,2.43123 -2.8571,2.85714 -1.807,0.60234 -3.8095,0 -5.7143,0 -1.9048,0 -3.8095,0 -5.7143,0 -8.5714,0 -17.1429,0 -25.7143,0 -10.4762,0 -20.9524,0 -31.4286,0 -4.7619,0 -9.6162,0.93389 -14.2857,0 -1.3207,-0.26414 -1.7364,-2.11003 -2.8571,-2.85714 -1.7719,-1.18128 -3.8095,-1.90476 -5.7143,-2.85714 -1.9048,-1.90476 -3.473,-4.22007 -5.7143,-5.71429 -0.7924,-0.52828 -2.0053,0.42592 -2.8571,0 -1.2047,-0.60234 -1.7365,-2.11003 -2.8572,-2.85714 -1.7719,-1.18128 -3.8095,-1.90476 -5.7143,-2.85714 -1.9047,-0.95238 -3.6939,-2.18371 -5.7142,-2.85715 -0.9035,-0.30116 -2.1837,0.67344 -2.8572,0 -0.6734,-0.67343 0.3012,-1.95363 0,-2.85714 -0.6734,-2.0203 -2.1837,-3.69398 -2.8571,-5.71428 -0.3012,-0.90351 0.6734,-2.18371 0,-2.85715 -0.1774,-8.04496 -6.4419,-0.72755 -8.5715,-2.85714 -0.6734,-0.67343 0.231,-1.9332 0,-2.85714 -0.7304,-2.92177 -2.1267,-5.64966 -2.8571,-8.57143 -0.462,-1.84789 0,-3.80952 0,-5.71429 0,-4.7619 0,-9.52381 0,-14.28571 0,-2.33857 -0.418,-16.30687 0,-17.14286 0.4259,-0.85183 2.0647,0.52829 2.8571,0 5.0741,-3.38268 9.5239,-7.61905 14.2858,-11.42857 z"
         style="fill:none;stroke:#d33d3d;stroke-width:6.80000019;stroke-linecap:butt;stroke-linejoin:miter;stroke-miterlimit:4;stroke-opacity:1;stroke-dasharray:none" />
      <path
         inkscape:connector-curvature="0"
         id="path3936"
         d="m 1236.4788,619.42127 c 17.1429,0 34.2858,0 51.4286,0 1.0734,0 14.2144,-0.0713 14.2857,0 0.6735,0.67344 -0.6734,2.18371 0,2.85714 0.6735,0.67344 2.0053,-0.42591 2.8572,0 1.2047,0.60234 1.6524,2.25481 2.8571,2.85715 0.8519,0.42592 1.9048,0 2.8572,0 0.9523,0 1.9047,0 2.8571,0 3.8095,0 7.6191,0 11.4286,0"
         style="fill:none;stroke:#d33d3d;stroke-width:6.80000019;stroke-linecap:butt;stroke-linejoin:miter;stroke-miterlimit:4;stroke-opacity:1;stroke-dasharray:none" />
      <path
         inkscape:connector-curvature="0"
         id="path3938"
         d="m 1199.336,487.9927 c -6.6667,0 -13.3333,0 -20,0 -0.9524,0 -2.1837,-0.67343 -2.8572,0 -1.5058,1.50585 -1.0852,4.533 -2.8571,5.71429 -1.5849,1.05657 -4.0106,-0.85184 -5.7143,0 -0.2885,0.14424 0,8.29873 0,11.42857 0,2.85714 -1.2777,6.01592 0,8.57143 0.4259,0.85183 1.9048,0 2.8572,0 0.9523,0 1.9047,0 2.8571,0 7.6191,0 15.2381,0 22.8571,0 0.9524,0 1.9048,0 2.8572,0 0.9524,0 2.1837,0.67343 2.8571,0 0.6735,-0.67344 0,-1.90477 0,-2.85715 0,-0.95238 0,-1.90476 0,-2.85714 0,-7.59098 -1.0411,-10.91986 -2.8571,-20 z"
         style="fill:none;stroke:#d33d3d;stroke-width:6.80000019;stroke-linecap:butt;stroke-linejoin:miter;stroke-miterlimit:4;stroke-opacity:1;stroke-dasharray:none" />
      <path
         inkscape:connector-curvature="0"
         id="path3940"
         d="m 1365.0503,502.27841 c -6.6667,0 -13.3334,0 -20,0 -1.9048,0 -3.9073,-0.60233 -5.7143,0 -2.0203,0.67344 -4.2084,1.3513 -5.7143,2.85715 -0.6734,0.67343 0.6734,2.18371 0,2.85714 -0.6734,0.67344 -2.1837,-0.67343 -2.8571,0 -0.1295,0.12949 0,12.93858 0,14.28571 0,2.85715 0,5.71429 0,8.57143 0,0.95238 -0.8519,2.43123 0,2.85715 2.5555,1.27775 5.7142,0 8.5714,0 6.6667,0 13.3333,0 20,0 7.619,0 -0.9524,0.95238 2.8571,-2.85715 0.6735,-0.67343 2.8572,-0.95238 2.8572,0 0,0.95238 -2.8572,0.95238 -2.8572,0 0,-3.01169 2.1267,-5.64965 2.8572,-8.57143 0.462,-1.84789 0,-3.80952 0,-5.71428 0,-4.76191 0,-9.52381 0,-14.28572 z"
         style="fill:none;stroke:#d33d3d;stroke-width:6.80000019;stroke-linecap:butt;stroke-linejoin:miter;stroke-miterlimit:4;stroke-opacity:1;stroke-dasharray:none" />
      <path
         inkscape:connector-curvature="0"
         id="path3942"
         d="m 1250.7646,579.42127 c 12.3525,3.08813 7.5018,2.85714 14.2857,2.85714"
         style="fill:none;stroke:#d33d3d;stroke-width:6.80000019;stroke-linecap:butt;stroke-linejoin:miter;stroke-miterlimit:4;stroke-opacity:1;stroke-dasharray:none" />
      <path
         inkscape:connector-curvature="0"
         id="path3944"
         d="m 1302.1931,573.70699 c 1.3271,10.10152 -6.5511,-2.02031 -8.5714,0 -0.1147,0.11471 0,6.01841 0,7.14285 0,0.95238 0,3.80953 0,2.85715 0,-5.03618 -0.6734,-2.35372 2.8571,0 0.3963,0.26414 0.9524,0 1.4286,0 2.8572,0 5.7143,0 8.5714,0 0.4762,0 1.0919,0.33671 1.4286,0 0.3367,-0.33672 0,-0.95238 0,-1.42858 0,-0.47619 0.2642,-1.03235 0,-1.42857 -1.6913,-2.53701 -3.8095,-4.7619 -5.7143,-7.14285 z"
         style="fill:none;stroke:#d33d3d;stroke-width:6.80000019;stroke-linecap:butt;stroke-linejoin:miter;stroke-miterlimit:4;stroke-opacity:1;stroke-dasharray:none" />
      <path
         inkscape:connector-curvature="0"
         id="path3946"
         d="m 1250.7646,575.13556 c 0,2.38095 0,4.7619 0,7.14285 0,0.4762 -0.213,1.00266 0,1.42858 0.3011,0.60233 0.9523,0.95238 1.4285,1.42857 0.4762,0.47619 0.7897,1.21561 1.4286,1.42857 1.3553,0.45175 2.8571,0 4.2857,0 0.9524,0 1.9048,0 2.8572,0 0.4762,0 1.4285,-0.47619 1.4285,0 0,0.47619 -1.4285,0.47619 -1.4285,0 0,-0.67344 1.1274,-0.82623 1.4285,-1.42857 0.1601,-0.32019 0,-5.37482 0,-5.71429 0,-0.47619 0.3368,-1.09185 0,-1.42857 -0.3367,-0.33672 -0.9523,0 -1.4285,0"
         style="fill:none;stroke:#d33d3d;stroke-width:6.80000019;stroke-linecap:butt;stroke-linejoin:miter;stroke-miterlimit:4;stroke-opacity:1;stroke-dasharray:none" />
      <path
         inkscape:connector-curvature="0"
         id="path3948"
         d="m 1177.9074,609.42127 c -3.3333,-1.42857 -6.7563,-2.66387 -10,-4.28571 -1.2866,-0.6433 -4.125,-5.47322 -4.2857,-5.71429 -2.2612,-3.39179 -4.4849,-6.89907 -7.1429,-10 -5.949,-6.94058 -3.6586,-1.60296 -8.5714,-11.42857 -0.6734,-1.34687 -0.5933,-3.03277 -1.4286,-4.28571 -1.1206,-1.681 -2.9709,-2.75179 -4.2857,-4.28572 -1.5495,-1.80775 -2.7362,-3.90653 -4.2857,-5.71428 -3.2138,-3.74948 -6.3272,-5.51161 -8.5714,-10 -0.6734,-1.34687 -0.8693,-2.88757 -1.4286,-4.28572 -0.3954,-0.98864 -1.2197,-1.81302 -1.4286,-2.85714 -0.2801,-1.40083 0.4518,-2.93045 0,-4.28572 -0.5429,-1.62882 -2.6302,-2.58384 -2.8571,-4.28571 -0.7552,-5.66416 0.3003,-11.43647 0,-17.14286 -0.177,-3.36252 -1.2046,-6.64028 -1.4286,-10 -0.2534,-3.80108 0,-7.61904 0,-11.42857 0,-10 0,-20 0,-30 0,-10.95238 0,-21.90476 0,-32.85714 0,-3.01876 -0.3307,-14.63944 0,-15.71429 1.1291,-3.6694 4.1257,-6.50495 5.7143,-10 0.8125,-1.7874 0.6312,-3.92012 1.4286,-5.71428 1.1277,-2.53733 3.4077,-4.5087 4.2857,-7.14286 0.6023,-1.80702 -0.5233,-3.88281 0,-5.71429 0.4717,-1.65086 2.2543,-2.6781 2.8571,-4.28571 1.0242,-2.73114 1.0947,-8.49114 2.8572,-11.42857 0.693,-1.15493 2.1642,-1.70221 2.8571,-2.85714 5.7487,-9.58106 -6.9152,1.47697 8.5715,-11.42858 0.3658,-0.30485 0.9523,0 1.4285,0 1.9048,0 3.8096,0 5.7143,0 0.4762,0 1.0919,-0.33671 1.4286,0 1.6836,1.68359 2.7362,3.90654 4.2857,5.71429 1.3148,1.53393 3.0735,2.66947 4.2857,4.28571 1.666,2.22132 2.7455,4.83255 4.2857,7.14286 3.9639,5.94583 5.8177,8.67486 10,12.85714 0.4762,0.47619 1.1274,0.82624 1.4286,1.42858 0.213,0.42591 -0.4259,1.21561 0,1.42857 6.5033,0 0.082,-0.67344 4.2857,1.42857 0.4259,0.21296 1.1644,-0.39622 1.4286,0 0.8353,1.25294 0.9524,2.85714 1.4286,4.28571 0.9523,1.42857 1.8269,2.91217 2.8571,4.28572 0.4041,0.53874 0.8262,1.1274 1.4286,1.42857 0.4259,0.21296 0.9768,-0.15059 1.4285,0 1.0102,0.33672 1.8242,1.17032 2.8572,1.42857 0.9239,0.23099 1.9048,0 2.8571,0 0.4762,0 1.0027,-0.21296 1.4286,0 0.6023,0.30117 0.8262,1.1274 1.4286,1.42857 0.4259,0.21296 0.9524,0 1.4285,0 0.4762,0 0.9524,0 1.4286,0 0.7632,0 6.734,-0.20443 7.1429,0 1.5356,0.76784 3.0716,1.64309 4.2857,2.85714 0.01,0.008 -0.012,4.23796 0,4.28572 0.2582,1.033 1.0918,1.84699 1.4286,2.85714 0.1505,0.45176 -0.213,1.00265 0,1.42857 0.3011,0.60234 1.1274,0.82624 1.4285,1.42857 0.426,0.85184 -0.4259,2.00531 0,2.85715 0.3012,0.60234 0.9524,0.95238 1.4286,1.42857 0,0.95238 -0.3012,1.95363 0,2.85714 0.213,0.63888 1.1274,0.82623 1.4286,1.42857 0.2129,0.42592 -0.1506,0.97682 0,1.42857 0.3367,1.01016 1.1703,1.82414 1.4285,2.85715 0.231,0.92394 -0.5282,2.06471 0,2.85714 0.5907,0.88596 2.1043,0.67565 2.8572,1.42857 0.3367,0.33672 -0.213,1.00265 0,1.42857 0.3012,0.60234 1.1274,0.82624 1.4286,1.42857 0.2129,0.42592 0,0.95238 0,1.42858 0,1.42857 -0.3465,2.89979 0,4.28571 0.1633,0.65333 0.9523,0.95238 1.4285,1.42857 0,1.90476 -0.2693,3.82867 0,5.71429 1.6677,11.67371 0.5309,-2.24426 4.2857,7.14285 1.0612,2.65279 -0.6929,5.7996 0,8.57143 0.1634,0.65333 1.1275,0.82624 1.4286,1.42857 0.213,0.42592 -0.2129,1.00266 0,1.42858 1.7653,3.53057 1.4286,-0.49312 1.4286,2.85714 0,0.98646 -0.2172,5.27995 0,5.71428 0.3012,0.60234 1.1274,0.82624 1.4286,1.42858 0.2129,0.42591 0,0.95238 0,1.42857 0.4762,0.47619 1.1274,0.82623 1.4285,1.42857 0.213,0.42592 -0.4259,1.21561 0,1.42857 0.8519,0.42592 2.1837,-0.67343 2.8572,0 0.3437,0.34376 -0.3438,5.37053 0,5.71429 0.3367,0.33671 1.0918,-0.33672 1.4285,0 0.1261,0.12605 0,5.5182 0,1.42857"
         style="fill:none;stroke:#d33d3d;stroke-width:6.80000019;stroke-linecap:butt;stroke-linejoin:miter;stroke-miterlimit:4;stroke-opacity:1;stroke-dasharray:none" />
      <path
         inkscape:connector-curvature="0"
         id="path3950"
         d="m 1352.1931,589.42127 c 0,-8.57143 6.2857,1.71429 8.5715,0 1.6162,-1.21218 2.8571,-2.85714 4.2857,-4.28571 0.4762,-0.47619 0.8262,-1.1274 1.4285,-1.42857 0.426,-0.21296 1.0027,0.21295 1.4286,0 1.2662,-0.6331 2.9853,-3.41875 4.2857,-4.28572 7.5383,-5.02554 -3.4033,5.79829 8.5715,-8.57143 0.8796,-1.0556 3.7651,-3.24446 4.2857,-4.28571 0.6734,-1.34687 0.3638,-3.22092 1.4285,-4.28572 1.0648,-1.06479 2.9389,-0.75513 4.2858,-1.42857 1.2803,-0.64014 4.1768,-5.52759 4.2857,-5.71428 2.4703,-4.23484 4.8185,-8.54048 7.1428,-12.85715 1.0097,-1.87504 2.1837,-3.69398 2.8572,-5.71428 4.0941,-20.47044 -1.6288,4.88646 4.2857,-12.85714 0.7678,-2.30351 0.7615,-4.80818 1.4286,-7.14286 0.2925,-1.02383 1.1703,-1.82414 1.4285,-2.85714 0.231,-0.92395 -0.5283,-2.06472 0,-2.85715 0.5907,-0.88596 2.1043,-0.67565 2.8572,-1.42857 0.3367,-0.33672 0,-0.95238 0,-1.42857 0,-0.95238 0,-1.90476 0,-2.85714 0,-11.41686 0,-3.43053 0,-10 0,-8.09524 0,-16.19048 0,-24.28572 0,-3.33333 0,-6.66666 0,-10 0,-0.95238 0.1868,-1.92325 0,-2.85714 -3.9153,-11.74582 0.5019,3.01169 -1.4286,-8.57143 -0.2476,-1.48536 -1.1332,-2.80911 -1.4286,-4.28571 -0.1867,-0.93389 0,-1.90477 0,-2.85715 0,-3.80952 0,-7.61904 0,-11.42857 0,-12.85714 0,-25.71428 0,-38.57143 0,-0.094 0.035,-9.96446 0,-10 -1.0648,-1.06479 -2.8378,-1.01488 -4.2857,-1.42857 -6.101,-1.74316 -6.8082,-1.42857 -12.8571,-1.42857 -1.4286,0 -2.9121,-0.39246 -4.2857,0 -2.0477,0.58504 -3.7569,2.01826 -5.7143,2.85714 -1.3841,0.59319 -2.9389,0.75514 -4.2857,1.42858 -0.6024,0.30116 -0.7753,1.26523 -1.4286,1.42857 -1.3859,0.34648 -2.9593,-0.53056 -4.2857,0 -1.2506,0.50021 -1.6525,2.2548 -2.8572,2.85714 -0.8518,0.42592 -1.9536,-0.30117 -2.8571,0 -0.6389,0.21296 -0.8682,1.05502 -1.4286,1.42857 -0.8859,0.59064 -1.9712,0.83793 -2.8571,1.42857 -0.5604,0.37356 -1.0245,0.88983 -1.4286,1.42857 -6.1411,8.18818 -0.1665,0.33311 -4.2857,8.57143 -0.3012,0.60234 -0.9524,0.95238 -1.4286,1.42857 -0.9524,0.95238 -2.049,1.77965 -2.8571,2.85715 -0.6389,0.85183 -0.9003,1.93264 -1.4286,2.85714 -1.3776,2.4108 -3.044,4.65935 -4.2857,7.14286 -0.6734,1.34687 -0.7551,2.93884 -1.4286,4.28571 -0.6023,1.20468 -2.049,1.77965 -2.8571,2.85714 -4.8461,6.4614 -1.0095,2.43807 -4.2857,5.71429 -0.4762,0.47619 -0.9524,0.95238 -1.4286,1.42857 -0.4762,0.47619 -1.2156,0.7897 -1.4286,1.42857 -0.3011,0.90351 0.4259,2.00531 0,2.85715 -0.2129,0.42591 -1.0026,-0.21296 -1.4286,0 -1.5356,0.76783 -2.9121,1.82698 -4.2857,2.85714 -2.0827,1.56204 -2.117,4.26847 -4.2857,5.71428 -0.7194,3.14738 -2.9388,0.75514 -4.2857,1.42858 -1.2047,0.60233 -1.7796,2.04902 -2.8571,2.85714 -0.1505,0.11284 -8.5333,5.67617 -8.5715,5.71428 -1.214,1.21406 -1.7846,2.94502 -2.8571,4.28572 -0.8414,1.05173 -1.7365,2.11003 -2.8572,2.85714 -0.3962,0.26414 -1.0026,-0.21296 -1.4285,0 -0.6024,0.30117 -0.9524,0.95238 -1.4286,1.42857 -0.4762,0.47619 -1.1274,0.82624 -1.4286,1.42857 -0.2129,0.42592 0.213,1.00266 0,1.42858 -0.3011,0.60233 -0.9523,0.95238 -1.4285,1.42857 -0.4762,0.47619 -0.7897,1.21561 -1.4286,1.42857 -0.9035,0.30117 -2.0647,-0.52829 -2.8572,0 -0.8859,0.59064 -0.8379,1.97118 -1.4285,2.85714 -0.3736,0.56033 -0.9524,0.95238 -1.4286,1.42857 -0.4762,0.47619 -1.055,0.86824 -1.4286,1.42857 -0.5906,0.88597 -0.6756,2.10422 -1.4285,2.85715 -13.3334,13.33333 4.2857,-8.09524 -7.1429,7.14285 -2.2773,3.03641 -2.8571,-0.36633 -2.8571,2.85715"
         style="fill:none;stroke:#d33d3d;stroke-width:6.80000019;stroke-linecap:butt;stroke-linejoin:miter;stroke-miterlimit:4;stroke-opacity:1;stroke-dasharray:none" />
      <path
         inkscape:connector-curvature="0"
         id="path3952"
         d="m 1253.6217,503.70699 c 4.2857,0 8.5714,0 12.8571,0 1.4286,0 2.8572,0 4.2858,0 0.4762,0 1.0026,0.21295 1.4285,0 5.9454,-2.97269 -1.5272,0.0986 1.4286,-2.85715 0.3367,-0.33671 0.9524,0 1.4286,0 0.4762,-0.95238 1.0918,-1.84699 1.4285,-2.85714 0.1506,-0.45175 -0.3367,-1.09185 0,-1.42857 0.3368,-0.33672 0.9769,0.15058 1.4286,0 1.0102,-0.33672 2.1042,-0.67565 2.8572,-1.42857 0.6734,-0.67344 -0.426,-2.00531 0,-2.85715 0.3011,-0.60233 1.2156,-0.78969 1.4285,-1.42857 1.7653,-5.29586 -1.9216,-0.93546 1.4286,-4.28571"
         style="fill:none;stroke:#d33d3d;stroke-width:6.80000019;stroke-linecap:butt;stroke-linejoin:miter;stroke-miterlimit:4;stroke-opacity:1;stroke-dasharray:none" />
      <path
         inkscape:connector-curvature="0"
         id="path3958"
         d="m 1172.1931,513.70699 c -4.2857,0 -8.5714,0 -12.8571,0 -0.4762,0 -1.1644,0.39621 -1.4286,0 -0.4762,-1.42858 -0.9524,-2.85715 -1.4286,-4.28572 -0.4761,0 -1.0918,0.33672 -1.4285,0 -0.6735,-0.67343 0.6734,-2.18371 0,-2.85714 -0.3367,-0.33672 -1.0919,0.33672 -1.4286,0 -0.4986,-0.49865 0.593,-3.98922 0,-4.28572 -0.8518,-0.42591 -2.1837,0.67344 -2.8571,0 -0.6735,-0.67343 0.231,-1.93319 0,-2.85714 -0.2583,-1.033 -1.0919,-1.84699 -1.4286,-2.85714 -0.1506,-0.45176 0,-0.95238 0,-1.42857 0,-1.42857 0,-2.85715 0,-4.28572 0,-2.85714 0,-5.71428 0,-8.57143"
         style="fill:none;stroke:#d33d3d;stroke-width:6.80000019;stroke-linecap:butt;stroke-linejoin:miter;stroke-miterlimit:4;stroke-opacity:1;stroke-dasharray:none" />
      <path
         inkscape:connector-curvature="0"
         id="path3960"
         d="m 1179.336,486.56413 c -1.9048,0 -3.8095,0 -5.7143,0 -2.8571,0 -5.7143,0 -8.5714,0 -0.4762,0 -1.0919,0.33672 -1.4286,0 -0.3367,-0.33672 0.4259,-1.21561 0,-1.42857 -0.8518,-0.42592 -1.9048,0 -2.8571,0 -0.4762,0 -1.0919,0.33671 -1.4286,0 -0.3367,-0.33672 0.3367,-1.09186 0,-1.42857 -0.342,-0.34204 -5.7143,0.32475 -5.7143,0 0,-0.47619 0.9524,0 1.4286,0"
         style="fill:none;stroke:#d33d3d;stroke-width:6.80000019;stroke-linecap:butt;stroke-linejoin:miter;stroke-miterlimit:4;stroke-opacity:1;stroke-dasharray:none" />
      <path
         inkscape:connector-curvature="0"
         id="path3962"
         d="m 1363.6217,530.84984 c 4.8571,-6.47619 4.2857,-3.33333 4.2857,-8.57143 0,-0.47619 -0.2129,-1.00265 0,-1.42857 0.3012,-0.60234 1.2156,-0.78969 1.4286,-1.42857 0.3012,-0.90351 -0.4259,-2.00531 0,-2.85714 0.6023,-1.20468 2.11,-1.73648 2.8571,-2.85714 0.2642,-0.39622 0,-0.95239 0,-1.42858 0,-0.47619 0,-0.95238 0,-1.42857 0,-1.90476 0,-3.80952 0,-5.71428 0,-0.47619 -0.1505,-0.97682 0,-1.42857 0.3368,-1.01016 1.0919,-1.84699 1.4286,-2.85715 0.7143,-2.14285 -1.4286,-1.42857 0,-4.28571 0.213,-0.42592 1.0919,0.33672 1.4286,0 0.3367,-0.33672 0,-0.95238 0,-1.42857 0,-3.80953 0,-7.61905 0,-11.42857"
         style="fill:none;stroke:#d33d3d;stroke-width:6.80000019;stroke-linecap:butt;stroke-linejoin:miter;stroke-miterlimit:4;stroke-opacity:1;stroke-dasharray:none" />
      <path
         inkscape:connector-curvature="0"
         id="path3964"
         d="m 1340.7646,503.70699 c 1.9047,0 5.7142,-1.90477 5.7142,0 0,1.90476 -7.0611,1.34687 -5.7142,0 1.7169,-1.71693 4.7478,-1.0294 7.1428,-1.42858 0.4697,-0.0783 1.0919,0.33672 1.4286,0 0.3367,-0.33671 -0.4518,-1.27798 0,-1.42857 10.1325,0 0.8368,1.01016 5.7143,-1.42857 0.4259,-0.21296 1.0918,0.33672 1.4285,0 0.753,-0.75292 0.6757,-2.10422 1.4286,-2.85714 10e-4,-10e-4 4.2793,0.002 4.2857,0 0.6389,-0.21296 0.8263,-1.1274 1.4286,-1.42857 0.775,-0.38749 5.3234,0.39089 5.7143,0 0.3367,-0.33672 0.4762,-1.42857 0,-1.42857 -0.6734,0 -2.102,1.42857 -1.4286,1.42857 1.5059,0 2.8248,-1.06335 4.2857,-1.42857 0.462,-0.1155 1.0919,0.33671 1.4286,0 0.3367,-0.33672 0,-0.95239 0,-1.42858"
         style="fill:none;stroke:#d33d3d;stroke-width:6.80000019;stroke-linecap:butt;stroke-linejoin:miter;stroke-miterlimit:4;stroke-opacity:1;stroke-dasharray:none" />
      <path
         inkscape:connector-curvature="0"
         id="path3966"
         d="m 1223.6217,647.9927 c -4.5529,-1.1717 -2.2282,8.74206 -2.8571,10 -0.3012,0.60234 -1.1274,0.82623 -1.4286,1.42857 -0.213,0.42592 0,0.95238 0,1.42857 0,1.42857 0.4517,2.93046 0,4.28572 -0.1506,0.45175 -1.0919,-0.33672 -1.4286,0 -0.175,0.17499 0.1297,3.76717 0,4.28571 -0.3652,1.46089 -1.0633,2.82483 -1.4286,4.28572 -0.243,0.9722 0.3907,3.50445 0,4.28571 -0.3011,0.60234 -1.1274,0.82623 -1.4285,1.42857 -0.2119,0.4237 0,7.18967 0,8.57143 -3.8095,0.47619 -7.5894,1.42857 -11.4286,1.42857 -0.6734,0 -0.8682,-1.05502 -1.4286,-1.42857 -8.0842,-5.38952 5.1331,6.67427 -10,-7.14286 -8.7067,-7.94958 -16.9197,-16.43344 -25.7143,-24.28571 -4.5488,-4.06151 -9.6704,-7.44266 -14.2857,-11.42857 -5.8667,-5.06675 -11.1333,-10.81767 -17.1428,-15.71429 -12.4064,-10.10893 -26.0987,-19.19924 -40,-27.14286 -7.0287,-4.01636 -14.4361,-7.34961 -21.4286,-11.42857 -4.4491,-2.59533 -8.5714,-5.71428 -12.8571,-8.57143 -9.5238,-5.23809 -19.07,-10.43571 -28.5715,-15.71428 -25.9704,-14.42801 3.099,1.56673 -17.1428,-10 -5.4415,-3.10944 -0.6293,0.79929 -7.1429,-5.71429 -0.4762,-0.47619 -1.2652,-0.77524 -1.4286,-1.42857 -0.3464,-1.38592 0,-2.85714 0,-4.28571 0,-2.38096 0,-4.76191 0,-7.14286"
         style="fill:none;stroke:#d33d3d;stroke-width:6.80000019;stroke-linecap:butt;stroke-linejoin:miter;stroke-miterlimit:4;stroke-opacity:1;stroke-dasharray:none" />
      <path
         inkscape:connector-curvature="0"
         id="path3968"
         d="m 1006.4788,549.42127 c 1.54,3.61995 -0.9239,7.73279 0,11.42857 1.5765,6.30581 3.3287,7.92109 7.1429,12.85715 6.6396,8.59241 13.9028,16.72888 20,25.71428 2.9894,4.40546 3.9088,10.05658 7.1429,14.28572 3.0749,4.02101 7.9841,6.29061 11.4285,10 33.3597,35.92583 -24.3157,-20.03004 17.1429,21.42857 2.156,2.15604 4.8765,3.67454 7.1428,5.71428 2.5029,2.25252 4.5562,4.98725 7.1429,7.14286 3.1469,2.62242 7.1035,4.2463 10,7.14286 1.9634,1.96338 2.5512,4.97466 4.2857,7.14285 2.1035,2.62933 4.6401,4.89034 7.1429,7.14286 2.2664,2.03975 5.2535,3.3211 7.1428,5.71429 5.3195,6.73794 9.135,14.56085 14.2857,21.42857 2.0204,2.69374 5.1226,4.44912 7.1429,7.14286 0.9035,1.20467 0.3638,3.22092 1.4286,4.28571 0.624,5.02316 4.0806,0.33948 5.7143,1.42857 1.1206,0.74711 1.6524,2.25481 2.8571,2.85714 0.8518,0.42592 1.9048,0 2.8571,0 1.9048,0 3.8096,0 5.7143,0 0.4762,0 0.9524,0 1.4286,0 0.4762,0 1.0919,-0.33671 1.4286,0 0.3367,0.33672 0,0.95239 0,1.42858 -17.4889,14.57408 -4.5893,1.88394 -10,10 -0.3736,0.56033 -1.055,0.86824 -1.4286,1.42857 -0.5906,0.88596 -0.4762,2.38095 -1.4286,2.85714 -1.2777,0.63888 -3.0079,-0.63888 -4.2857,0 -0.9524,0.47619 -0.6756,2.10422 -1.4286,2.85714 -4.0546,4.05462 -8.5034,7.69688 -12.8571,11.42857 -2.315,1.98434 -4.9868,3.55825 -7.1429,5.71429 -11.1238,11.12385 0.093,3.49415 -12.8571,14.28571 -3.1469,2.62242 -6.8013,4.58389 -10,7.14286 -1.5776,1.26208 -2.8571,2.85714 -4.2857,4.28572 -4.2857,4.28571 -8.5714,8.57142 -12.8572,12.85714 -1.4285,1.42857 -2.8571,2.85714 -4.2857,4.28571 -1.4285,1.42857 -3.0735,2.66947 -4.2857,4.28572 -1.666,2.22131 -2.6718,4.88341 -4.2857,7.14285 -0.7828,1.096 -2.0743,1.76115 -2.8571,2.85715 -1.6139,2.25944 -2.6934,4.86814 -4.2858,7.14285 -1.7485,2.49793 -4.0229,4.60585 -5.7142,7.14286 -1.1813,1.77193 -1.823,3.85269 -2.8572,5.71429 -1.3484,2.42722 -2.7455,4.83255 -4.2857,7.14285 -1.3207,1.98108 -3.0442,3.68267 -4.2857,5.71429 -4.0039,6.55179 -7.1694,13.61123 -11.4286,20 -1.4942,2.24133 -4.0605,3.58798 -5.7143,5.71429 -3.4094,4.3835 -5.0163,10.01956 -8.5714,14.28571 -2.0466,2.45591 -4.2857,0.0266 -4.2857,4.28571"
         style="fill:none;stroke:#d33d3d;stroke-width:6.80000019;stroke-linecap:butt;stroke-linejoin:miter;stroke-miterlimit:4;stroke-opacity:1;stroke-dasharray:none" />
      <path
         inkscape:connector-curvature="0"
         id="path3970"
         d="m 1016.4788,892.27841 c 2.381,-0.47619 5.1226,-0.0817 7.1429,-1.42857 1.2529,-0.83529 0.5933,-3.03277 1.4286,-4.28571 1.1206,-1.681 2.8571,-2.85714 4.2857,-4.28572 1.4286,-1.42857 2.6047,-3.16505 4.2857,-4.28571 1.2529,-0.83529 2.9945,-0.65382 4.2857,-1.42857 3.5126,-2.10755 6.5441,-4.94363 10,-7.14286 1.7967,-1.14332 3.8527,-1.82292 5.7143,-2.85714 3.8654,-2.14744 9.4827,-5.5037 12.8571,-8.57143 7.5773,-6.8884 12.0797,-12.20987 18.5715,-20 1.952,-2.34239 3.6745,-4.87647 5.7143,-7.14286 2.2525,-2.5028 4.7619,-4.7619 7.1428,-7.14285 5.2381,-5.71429 10.6374,-11.2849 15.7143,-17.14286 3.6062,-4.16101 2.0804,-5.19642 7.1429,-8.57143 1.2529,-0.83529 3.0327,-0.59328 4.2857,-1.42857 1.681,-1.12067 2.7337,-2.99235 4.2857,-4.28572 1.319,-1.09915 2.8791,-1.87254 4.2857,-2.85714 3.3333,-2.38095 6.6667,-4.7619 10,-7.14286 0.9524,-0.47619 1.9441,-0.88074 2.8571,-1.42857 1.4723,-0.88335 2.7501,-2.08931 4.2858,-2.85714 1.3468,-0.67344 2.9388,-0.75514 4.2857,-1.42857 1.2047,-0.60234 1.5794,-2.43123 2.8571,-2.85714 1.7424,-0.5808 3.4482,1.08411 4.2857,-1.42858 0.3012,-0.9035 -0.4259,-2.0053 0,-2.85714 0.213,-0.42592 1.0027,0.21296 1.4286,0 0.6023,-0.30117 1.1274,-0.82623 1.4286,-1.42857 0.2129,-0.42592 -0.3367,-1.09185 0,-1.42857 0.3367,-0.33672 0.9666,0.11549 1.4285,0 1.4609,-0.36522 3.0328,-0.59328 4.2858,-1.42857 2.8571,-1.90476 -3.3334,-1.42857 1.4285,-1.42857 -1.4285,2.85714 -3.0274,5.63532 -4.2857,8.57142 -0.3751,0.87538 0,1.90477 0,2.85715 0,2.38095 0,4.7619 0,7.14285 0,3.33334 -0.3018,6.68036 0,10 0.3049,3.35335 1.1703,6.64275 1.4286,10 0.2191,2.84873 -0.2373,5.72416 0,8.57143 0.2405,2.88655 1.2222,5.68224 1.4286,8.57143 0.2714,3.79984 -0.5035,7.65247 0,11.42857 0.4581,3.43631 2.0163,6.63679 2.8571,10 2.1296,8.51836 3.5202,17.21231 5.7143,25.71429 2.7134,10.51434 5.858,20.91423 8.5714,31.42857 1.0971,4.25099 1.726,8.61512 2.8572,12.85714 0.776,2.91001 2.1267,5.64966 2.8571,8.57143 0.7025,2.81007 0.5646,5.80673 1.4286,8.57143 1.5297,4.89527 3.7615,9.54329 5.7143,14.28571 4.2634,10.35412 7.0472,16.86729 14.2857,25.71429 5.9854,7.31553 12.2918,14.36398 18.5714,21.42857 1.3422,1.51 3.1651,2.60472 4.2857,4.28572 0.8353,1.25294 0.2239,3.3822 1.4286,4.28571 1.1428,0.85714 2.8571,0 4.2857,0 0,-12.31066 0,-5.80801 0,-20 0,-20.95238 0,-41.90476 0,-62.85714 0,-15.10276 0.611,-30.75767 -1.4286,-45.71429 -0.3464,-2.54085 -2.3984,-4.61986 -2.8571,-7.14286 -0.5111,-2.81105 0,-5.71428 0,-8.57142 0,-4.28572 0.388,-8.58903 0,-12.85715 -0.2622,-2.88466 -1.188,-5.68488 -1.4286,-8.57143 -0.2373,-2.84727 0.5346,-5.76474 0,-8.57142 -1.3832,-7.26191 -3.7357,-14.3058 -5.7143,-21.42858 -0.403,-1.45091 -0.7551,-2.93884 -1.4285,-4.28571 -0.3012,-0.60234 -1.1274,-0.82623 -1.4286,-1.42857 -0.213,-0.42592 0.4259,-1.21561 0,-1.42857 -1.4869,-0.74347 -3.6288,1.19914 -4.2857,-1.42857 -0.3465,-1.38592 0,-2.85715 0,-4.28572"
         style="fill:none;stroke:#d33d3d;stroke-width:6.80000019;stroke-linecap:butt;stroke-linejoin:miter;stroke-miterlimit:4;stroke-opacity:1;stroke-dasharray:none" />
      <path
         inkscape:connector-curvature="0"
         id="path3972"
         d="m 1235.0503,792.27841 c 1.4285,1.90477 2.8571,3.80953 4.2857,5.71429 0.4762,0.95238 0.8379,1.97118 1.4286,2.85714 1.4505,2.17581 4.1952,2.1591 5.7142,4.28572 1.9959,2.79424 3.6062,5.8609 5.7143,8.57143 1.2404,1.59473 3.0237,2.70812 4.2857,4.28571 2.8816,3.60192 13.9934,19.90691 15.7143,22.85714 4.079,6.9925 6.7141,14.84785 11.4286,21.42857 32.6617,45.59023 69.421,87.89125 102.8571,132.85715 20.4271,27.47084 14.9353,23.00414 37.1429,47.14284 4.5595,4.956 9.0271,10.0788 14.2857,14.2857 4.3364,3.4691 9.6234,5.5546 14.2857,8.5715 10.3134,6.6733 9.0982,6.241 17.1429,14.2857 1.4286,1.4285 2.2654,4.2857 4.2857,4.2857 1.4286,0 0,-2.8572 0,-4.2857 0,-9.9412 0,0.2806 0,-7.1429 0,-0.4762 -0.3367,-1.0918 0,-1.4286 0.3367,-0.3367 1.0919,0.3368 1.4286,0 0.3367,-0.3367 -0.4762,-1.4285 0,-1.4285 0.4762,0 0,0.9524 0,1.4285 0,-3.3333 0.5963,-6.7204 0,-10 -0.381,-2.0952 -2.1837,-3.6939 -2.8572,-5.7142 -0.7678,-2.3035 -0.6607,-4.8394 -1.4285,-7.1429 -0.6735,-2.0203 -1.9048,-3.8095 -2.8572,-5.7143 -3.3333,-6.6666 -6.6666,-13.3333 -10,-20 -1.4286,-2.8571 -2.7712,-5.7588 -4.2857,-8.5714 -1.8201,-3.3803 -4.3663,-6.4053 -5.7143,-10 -1.5415,-4.11074 -1.6821,-8.62706 -2.8571,-12.85716 -1.5245,-5.48815 -7.584,-22.55248 -10,-27.14285 -3.673,-6.97858 -19.4275,-27.54162 -22.8572,-31.42858 -5.9394,-6.73131 -7.5986,-4.79894 -14.2857,-10 -2.1263,-1.65379 -3.588,-4.06049 -5.7143,-5.71428 -6.1209,-4.76069 -7.5485,-3.26286 -12.8571,-8.57143 -1.6836,-1.68359 -2.8917,-3.7841 -4.2857,-5.71429 -4.7968,-6.64164 -9.5238,-13.33333 -14.2857,-20 -2.381,-3.33333 -4.7335,-6.68713 -7.1429,-10 -1.4004,-1.92556 -2.965,-3.73321 -4.2857,-5.71428 -4.7957,-7.19347 -3.2329,-6.62884 -8.5714,-12.85714 -4.7041,-5.48808 -3.281,-3.17499 -8.5715,-7.14286 -0.5387,-0.40406 -0.8262,-1.1274 -1.4285,-1.42857 -8.2698,-4.1349 -0.4472,2.40999 -8.5715,-5.71429 -0.4762,-0.47619 -1.2652,-0.77524 -1.4285,-1.42857 -0.2811,-1.12441 0,-9.96659 0,-11.42857"
         style="fill:none;stroke:#d33d3d;stroke-width:6.80000019;stroke-linecap:butt;stroke-linejoin:miter;stroke-miterlimit:4;stroke-opacity:1;stroke-dasharray:none" />
      <path
         inkscape:connector-curvature="0"
         id="path3974"
         d="m 1477.9074,543.70699 c 0,6.50326 0.6735,0.0817 -1.4286,4.28571 -0.4421,0.88435 0.4681,7.63541 0,8.57143 -0.3011,0.60234 -1.1274,0.82623 -1.4285,1.42857 -0.213,0.42592 0.3367,1.09185 0,1.42857 -0.7529,0.75292 -1.9712,0.83793 -2.8572,1.42857 -1.6381,1.09207 -3.616,4.82139 -4.2857,5.71429 -0.404,0.53875 -0.9524,0.95238 -1.4286,1.42857 -2.1009,2.10093 -8.1867,7.7334 -10,10 -0.6651,0.83146 -0.7896,2.00531 -1.4285,2.85714 -0.8081,1.0775 -1.9048,1.90477 -2.8572,2.85715 -1.9047,1.90476 -3.9612,3.66904 -5.7143,5.71428 -1.1173,1.30359 -1.643,3.07166 -2.8571,4.28572 -1.214,1.21405 -3.0717,1.64309 -4.2857,2.85714 -0.7529,0.75292 -0.6757,2.10422 -1.4286,2.85714 -1.214,1.21405 -2.9667,1.75799 -4.2857,2.85714 -1.552,1.29337 -2.5316,3.28337 -4.2857,4.28572 -4.9957,2.8547 -10.6374,4.43517 -15.7143,7.14286 -8.1172,4.32916 -3.3632,3.59383 -10,8.57142 -12.7884,9.5913 -1.8312,-0.87935 -12.8571,8.57143 -3.0679,2.6296 -5.7143,5.71429 -8.5715,8.57143 -1.4285,1.42857 -2.6694,3.07353 -4.2857,4.28572 -2.2213,1.66598 -5.1795,2.32233 -7.1428,4.28571 -1.0648,1.06479 -0.5933,3.03277 -1.4286,4.28571 -1.1207,1.681 -2.8572,2.85715 -4.2857,4.28572 -1.4286,1.42857 -2.7518,2.97092 -4.2857,4.28571 -9.6243,8.2494 -2.0452,-0.0537 -11.4286,10 -4.8302,5.1752 -9.5238,10.47619 -14.2857,15.71429 2.4494,-14.50218 -6.4419,-0.72756 -8.5715,-2.85714 -0.3367,-0.33672 0.3963,-1.16443 0,-1.42858 -1.2529,-0.83529 -3.081,-0.52506 -4.2857,-1.42857 -0.8518,-0.63887 -0.8379,-1.97118 -1.4285,-2.85714 0.241,-2.73164 -2.1739,-0.74526 -2.8572,-1.42857 -0.3367,-0.33672 0.3367,-1.09186 0,-1.42857 -0.7529,-0.75293 -2.1042,-0.67565 -2.8571,-1.42857 -0.3367,-0.33672 0.3367,-1.09186 0,-1.42858 -0.3367,-0.33671 -1.0919,0.33672 -1.4286,0 -0.3367,-0.33671 0,-0.95238 0,-1.42857 0,-0.60094 0.2125,-8.14646 0,-8.57143 -0.3012,-0.60233 -1.2156,-0.78969 -1.4286,-1.42857 -0.4517,-1.35526 0,-2.85714 0,-4.28571 0,-2.38095 0,-4.76191 0,-7.14286 0,-0.64337 0.2174,-3.85095 0,-4.28571 -1.7653,-3.53058 -1.4285,0.49311 -1.4285,-2.85715"
         style="fill:none;stroke:#d33d3d;stroke-width:6.80000019;stroke-linecap:butt;stroke-linejoin:miter;stroke-miterlimit:4;stroke-opacity:1;stroke-dasharray:none" />
      <path
         inkscape:connector-curvature="0"
         id="path3976"
         d="m 1487.9074,549.42127 c -1.9047,0.47619 -3.8913,0.69939 -5.7143,1.42857 -2.2968,0.91873 -1.0527,1.35375 -1.4285,2.85715 -0.3653,1.46088 -0.7552,2.93884 -1.4286,4.28571 -1.6442,3.28843 -1.6758,-0.62281 -4.2857,2.85714 -0.9035,1.20468 -0.4879,3.10985 -1.4286,4.28572 -2.9448,3.68105 -6.8682,6.47668 -10,10 -0.7074,0.79583 -0.9003,1.93264 -1.4286,2.85714 -1.9065,3.33636 -4.7629,8.09665 -7.1428,11.42857 -1.3839,1.93746 -2.7362,3.90653 -4.2857,5.71429 -1.3148,1.53393 -3.1651,2.60472 -4.2858,4.28571 -0.8352,1.25294 -0.7551,2.93885 -1.4285,4.28572 -2.1926,4.38509 -4.6726,8.62231 -7.1429,12.85714 -0.8651,1.48305 -2.1808,2.70761 -2.8571,4.28571 -0.7734,1.80464 -0.6994,3.89133 -1.4286,5.71429 -0.2501,0.62527 -1.0079,0.90271 -1.4286,1.42857 -1.4873,1.85921 -3.1044,3.64704 -4.2857,5.71429 -0.7471,1.30744 -0.5933,3.03277 -1.4286,4.28571 -2.2413,3.36199 -6.147,5.33894 -8.5714,8.57143 -3.0905,4.12063 -5.4809,8.73651 -8.5714,12.85714 -1.2122,1.61625 -3.1651,2.60472 -4.2857,4.28572 -0.8353,1.25294 -0.4879,3.10984 -1.4286,4.28571 -1.0726,1.3407 -3.2132,1.51645 -4.2857,2.85714 -0.9407,1.17587 -0.7551,2.93885 -1.4286,4.28572 -0.3011,0.60234 -1.0079,0.9027 -1.4286,1.42857 -1.4873,1.85921 -2.8853,3.78872 -4.2857,5.71428 -2.4093,3.31287 -4.7937,6.64415 -7.1428,10 -0.9846,1.40657 -1.827,2.91218 -2.8572,4.28572 -0.404,0.53875 -1.0245,0.88982 -1.4285,1.42857 -1.0302,1.37354 -1.6431,3.07166 -2.8572,4.28571 -0.7529,0.75293 -2.1042,0.67565 -2.8571,1.42858 -0.3367,0.33671 0.3367,1.09185 0,1.42857 -5.255,5.25501 -1.0341,-4.04061 -4.2857,5.71428 10.3636,3.52349 10.212,2.85715 20,2.85715 1.9047,0 3.8189,-0.18954 5.7142,0 14.3988,1.43987 25.1893,7.12191 38.5715,12.85714 3.3333,1.42857 7.3266,1.83516 10,4.28571 3.3115,3.03561 4.4862,7.8059 7.1428,11.42857 18.0225,24.57616 -1.4422,-6.39366 18.5715,22.85715 3.1358,4.58317 5.0853,9.96296 8.5714,14.28571 44.7835,55.53156 13.5219,17.71265 32.8571,34.28572 1.534,1.31479 2.6048,3.16505 4.2857,4.28571 1.253,0.83529 2.9389,0.75514 4.2858,1.42857 0.6023,0.30117 0.8262,1.1274 1.4285,1.42857 0.426,0.21296 0.9666,-0.11549 1.4286,0 1.4609,0.36522 2.8248,1.06335 4.2857,1.42857 0.462,0.1155 1.0919,-0.33671 1.4286,0 0.7529,0.75293 0.6756,2.10422 1.4286,2.85715 0.3367,0.33671 0.9523,0 1.4285,0 0.9806,0 5.6956,0 7.1429,0"
         style="fill:none;stroke:#d33d3d;stroke-width:6.80000019;stroke-linecap:butt;stroke-linejoin:miter;stroke-miterlimit:4;stroke-opacity:1;stroke-dasharray:none" />
      <path
         inkscape:connector-curvature="0"
         id="path3978"
         d="m 1532.1931,830.84984 c -12,-1.71428 -7.619,0.95238 -14.2857,-5.71428 -2.3809,-2.38096 -4.8903,-4.64006 -7.1428,-7.14286 -2.0398,-2.26638 -3.5583,-4.98681 -5.7143,-7.14286 -6.2959,-6.29586 -16.3839,-14.41257 -24.2857,-18.57143 -4.5904,-2.41598 -21.6547,-8.47551 -27.1429,-10 -4.2301,-1.17502 -8.613,-1.7337 -12.8571,-2.85714 -11.951,-3.1635 -23.6553,-7.277 -35.7143,-10 -2.787,-0.62932 -5.7996,0.69296 -8.5715,0 -3.099,-0.77475 -5.6633,-2.96387 -8.5714,-4.28571 -2.3345,-1.06114 -4.7757,-1.87085 -7.1428,-2.85715 -3.3476,-1.39483 -6.8163,-2.54912 -10,-4.28571 -14.3062,-7.80339 1.8883,-0.64585 -10,-8.57143 -1.7246,-3.44667 -4.9711,-0.34269 -7.1429,-1.42857 -0.4259,-0.21296 0,-0.95238 0,-1.42857 7.1761,7.99036 15.9235,14.66286 22.8571,22.85714 1.7936,2.11965 2.6526,4.89729 4.2858,7.14286 2.1875,3.00782 4.7224,5.74763 7.1428,8.57143 3.2943,3.84333 6.4207,7.84921 10,11.42857 5.6828,5.68279 17.0077,15.0364 24.2857,18.57143 12.0925,5.87348 24.9704,10.00844 37.1429,15.71428 3.1092,1.45745 5.6829,3.8574 8.5714,5.71429 3.7789,2.42928 7.4105,5.13381 11.4286,7.14286 27.5305,13.76527 -14.3808,-11.96812 18.5714,10 2.3103,1.5402 5.1795,2.32233 7.1429,4.28571 2.8965,2.89655 4.5489,6.8296 7.1428,10 1.7058,2.08484 3.8096,3.80952 5.7143,5.71429 2.8572,3.80952 5.5967,7.71014 8.5714,11.42857 4.6467,5.80836 9.4142,11.52179 14.2858,17.14285 5.7963,6.68814 3.3145,1.37208 5.7142,8.57143"
         style="fill:none;stroke:#d33d3d;stroke-width:6.80000019;stroke-linecap:butt;stroke-linejoin:miter;stroke-miterlimit:4;stroke-opacity:1;stroke-dasharray:none" />
      <path
         inkscape:connector-curvature="0"
         id="path3980"
         d="m 1533.6217,910.84984 c -9.8223,-1.40319 -15.7046,-1.82162 -25.7143,-5.71428 -3.5781,-1.3915 -6.5661,-3.99736 -10,-5.71429 -3.2437,-1.62184 -6.8512,-2.48644 -10,-4.28571 -21.9147,-12.52269 2.051,-1.44604 -20,-15.71429 -4.4698,-2.89225 -9.8559,-4.18965 -14.2857,-7.14286 -11.332,-7.55467 -21.6455,-16.55354 -32.8571,-24.28571 -2.6297,-1.81356 -5.5183,-3.34629 -8.5715,-4.28571 -3.2182,-0.99024 -6.719,-0.67143 -10,-1.42858 -5.8691,-1.35441 -11.2014,-4.72404 -17.1428,-5.71428 -2.8183,-0.46971 -5.726,0.25867 -8.5715,0 -4.2251,-0.38411 -12.1213,-2.68884 -15.7142,-4.28572 -14.6722,6.5831 -13.9781,-9.13188 -21.4286,-12.85714 -2.1718,-1.08588 -4.9111,-0.47209 -7.1429,-1.42857 -1.2379,-0.53056 -1.6524,-2.2548 -2.8571,-2.85714 -0.8518,-0.42592 -1.9048,0 -2.8572,0 -0.9523,0 -1.9047,0 -2.8571,0 -3.3333,0 -6.6667,0 -10,0"
         style="fill:none;stroke:#d33d3d;stroke-width:6.80000019;stroke-linecap:butt;stroke-linejoin:miter;stroke-miterlimit:4;stroke-opacity:1;stroke-dasharray:none" />
    </g>
    <use
       x="0"
       y="0"
       xlink:href="#g3982"
       id="use4006"
       transform="translate(60.609157,-864.69058)"
       width="1044.4141"
       height="718.47937" />
    <use
       x="0"
       y="0"
       xlink:href="#g3982"
       id="use4008"
       transform="translate(-505.07627,206.07112)"
       width="1044.4141"
       height="718.47937" />
    <path
       style="fill:none;stroke:#24a6e3;stroke-width:57.20000076;stroke-linecap:butt;stroke-linejoin:miter;stroke-miterlimit:4;stroke-opacity:1;stroke-dasharray:none"
       d="m -746.37581,160.66246 c 331.33003,-206.071122 60.60915,-359.6143 331.33003,-206.071122 C -144.32489,108.13453 174.88331,91.972088 174.88331,91.972088 344.18974,135.28304 317.59153,-19.599542 264.6955,-84.808272 221.47603,-138.088 411.21813,-236.55784 425.40114,-13.083772 460.93071,546.73662 688.0408,447.54579 348.62955,629.37324 9.2182864,811.2007 655.71592,851.6068 9.2182864,815.24131 -637.27934,778.87582 -479.69554,1283.9521 -637.27934,782.91643 -794.86313,281.88077 -847.39107,419.26151 -746.37581,160.66246 z"
       id="path4040"
       inkscape:connector-curvature="0"
       sodipodi:nodetypes="cscsssssc" />
  </g>
</svg>
