<?xml version="1.0" encoding="UTF-8" standalone="no"?>
<!-- Created with Inkscape (http://www.inkscape.org/) -->

<svg
   xmlns:dc="http://purl.org/dc/elements/1.1/"
   xmlns:cc="http://creativecommons.org/ns#"
   xmlns:rdf="http://www.w3.org/1999/02/22-rdf-syntax-ns#"
   xmlns:svg="http://www.w3.org/2000/svg"
   xmlns="http://www.w3.org/2000/svg"
   xmlns:xlink="http://www.w3.org/1999/xlink"
   xmlns:sodipodi="http://sodipodi.sourceforge.net/DTD/sodipodi-0.dtd"
   xmlns:inkscape="http://www.inkscape.org/namespaces/inkscape"
   width="1044.4141"
   height="718.47937"
   id="svg2"
   version="1.1"
   inkscape:version="0.48.2 r9819"
   sodipodi:docname="pears.svg"
   inkscape:export-filename="C:\workspace\GWH\doc\labirynt.png"
   inkscape:export-xdpi="90"
   inkscape:export-ydpi="90">
  <defs
     id="defs4">
    <inkscape:path-effect
       effect="spiro"
       id="path-effect3069"
       is_visible="true" />
    <marker
       inkscape:stockid="Arrow2Lstart"
       orient="auto"
       refY="0.0"
       refX="0.0"
       id="Arrow2Lstart"
       style="overflow:visible">
      <path
         id="path3843"
         style="font-size:12.0;fill-rule:evenodd;stroke-width:0.62500000;stroke-linejoin:round"
         d="M 8.7185878,4.0337352 L -2.2072895,0.016013256 L 8.7185884,-4.0017078 C 6.9730900,-1.6296469 6.9831476,1.6157441 8.7185878,4.0337352 z "
         transform="scale(1.1) translate(1,0)" />
    </marker>
    <marker
       inkscape:stockid="Arrow1Lstart"
       orient="auto"
       refY="0.0"
       refX="0.0"
       id="Arrow1Lstart"
       style="overflow:visible">
      <path
         id="path3825"
         d="M 0.0,0.0 L 5.0,-5.0 L -12.5,0.0 L 5.0,5.0 L 0.0,0.0 z "
         style="fill-rule:evenodd;stroke:#000000;stroke-width:1.0pt;marker-start:none"
         transform="scale(0.8) translate(12.5,0)" />
    </marker>
  </defs>
  <sodipodi:namedview
     id="base"
     pagecolor="#ffffff"
     bordercolor="#666666"
     borderopacity="1.0"
     inkscape:pageopacity="0.0"
     inkscape:pageshadow="2"
     inkscape:zoom="0.49497475"
     inkscape:cx="1274.9672"
     inkscape:cy="879.69444"
     inkscape:document-units="px"
     inkscape:current-layer="layer1"
     showgrid="false"
     inkscape:window-width="1366"
     inkscape:window-height="716"
     inkscape:window-x="-8"
     inkscape:window-y="-8"
     inkscape:window-maximized="1"
     fit-margin-top="0"
     fit-margin-left="0"
     fit-margin-right="0"
     fit-margin-bottom="0"
     showborder="false"
     borderlayer="false"
     inkscape:showpageshadow="false" />
  <metadata
     id="metadata7">
    <rdf:RDF>
      <cc:Work
         rdf:about="">
        <dc:format>image/svg+xml</dc:format>
        <dc:type
           rdf:resource="http://purl.org/dc/dcmitype/StillImage" />
        <dc:title></dc:title>
      </cc:Work>
    </rdf:RDF>
  </metadata>
  <g
     inkscape:groupmode="layer"
     id="layer2"
     inkscape:label="bg"
     sodipodi:insensitive="true">
    <rect
       style="fill:#ffffff;fill-opacity:1;stroke:none"
       id="rect4682"
       width="3000"
       height="2971.4285"
       x="-870.32501"
       y="-834.52856"
       inkscape:export-xdpi="90"
       inkscape:export-ydpi="90" />
  </g>
  <g
     inkscape:label="Layer 1"
     inkscape:groupmode="layer"
     id="layer1"
     transform="translate(-65.786831,-335.15794)">
    <text
       xml:space="preserve"
       style="font-size:40px;font-style:normal;font-weight:normal;line-height:125%;letter-spacing:0px;word-spacing:0px;fill:#000000;fill-opacity:1;stroke:none;font-family:Sans"
       x="-153.09341"
       y="-441.44019"
       id="text3008"
       sodipodi:linespacing="125%"><tspan
         sodipodi:role="line"
         id="tspan3010"
         x="-153.09341"
         y="-441.44019"
         style="font-size:64px;fill:#e75151;fill-opacity:1">gruszki, symbol seksulaności</tspan><tspan
         sodipodi:role="line"
         x="-153.09341"
         y="-381.49396"
         id="tspan3012">wariacja na temat prymitywnego strzelania do celu</tspan><tspan
         sodipodi:role="line"
         x="-153.09341"
         y="-331.49396"
         id="tspan3018" /></text>
    <g
       id="g3802"
       transform="matrix(0.76565949,0,0,0.72660088,233.63468,205.88047)">
      <path
         sodipodi:nodetypes="csssc"
         inkscape:connector-curvature="0"
         id="path3024"
         d="m 291.50112,927.92302 c 0,0 4.92233,-3.18002 -22.5988,-9.14468 -42.86882,-9.29096 -115.33088,-61.46653 -74.54406,-119.42674 54.28572,-77.14286 85.71429,-131.42857 97.14286,-131.42857 11.42857,0 11.42857,0 11.42857,0"
         style="fill:none;stroke:#ffee12;stroke-width:8.69999981;stroke-linecap:butt;stroke-linejoin:miter;stroke-miterlimit:4;stroke-opacity:1;stroke-dasharray:none" />
      <path
         sodipodi:nodetypes="cssc"
         style="fill:none;stroke:#ffee12;stroke-width:8.69999981;stroke-linecap:butt;stroke-linejoin:miter;stroke-miterlimit:4;stroke-opacity:1;stroke-dasharray:none"
         d="m 300.51232,923.63731 c 0,0 160,-47.14286 105.71428,-124.28571 -54.28571,-77.14286 -85.71428,-131.42857 -97.14285,-131.42857 -11.42857,0 -11.42857,-65.71429 -11.42857,-65.71429"
         id="path3026"
         inkscape:connector-curvature="0" />
    </g>
    <use
       x="0"
       y="0"
       xlink:href="#g3802"
       id="use3806"
       transform="matrix(1.433166,0,0,1.4487275,-9.330216,264.5768)"
       width="1044.4141"
       height="718.47937" />
    <use
       x="0"
       y="0"
       xlink:href="#use3806"
       id="use3808"
       transform="matrix(1.5241394,0,0,1.910026,448.25589,-1755.8091)"
       width="1044.4141"
       height="718.47937" />
    <use
       x="0"
       y="0"
       xlink:href="#g3802"
       id="use3810"
       transform="translate(398.00011,216.17264)"
       width="1044.4141"
       height="718.47937"
       style="fill:#b34c4c;fill-opacity:1;stroke:#9a6575;stroke-opacity:1" />
    <g
       id="g4642"
       transform="matrix(0.28471103,-0.38079981,0.54204634,0.27655236,-16.475681,701.7272)"
       inkscape:transform-center-y="57.142857">
      <path
         transform="translate(65.786831,335.15794)"
         inkscape:connector-curvature="0"
         id="path4638"
         d="m 1547.5537,1078.0937 -654.57885,0 92.93403,28.2842"
         style="fill:none;stroke:#000000;stroke-width:1px;stroke-linecap:butt;stroke-linejoin:miter;stroke-opacity:1" />
      <path
         transform="translate(65.786831,335.15794)"
         inkscape:connector-curvature="0"
         id="path4640"
         d="m 901.05607,1070.0125 84.85281,-20.2031"
         style="fill:none;stroke:#000000;stroke-width:1px;stroke-linecap:butt;stroke-linejoin:miter;stroke-opacity:1" />
    </g>
    <g
       id="g4659"
       transform="translate(-34.285714,154.28571)">
      <text
         sodipodi:linespacing="125%"
         id="text3020"
         y="1866.415"
         x="91.640457"
         style="font-size:40px;font-style:normal;font-weight:normal;line-height:125%;letter-spacing:0px;word-spacing:0px;fill:#000000;fill-opacity:1;stroke:none;font-family:Sans"
         xml:space="preserve"><tspan
           y="1866.415"
           x="91.640457"
           id="tspan3022"
           sodipodi:role="line">Prawo psychologiczne: seks bez dobrej relacji powoduje zmniejszenie libido</tspan></text>
      <text
         sodipodi:linespacing="125%"
         id="text4651"
         y="1700.1349"
         x="90.030502"
         style="font-size:40px;font-style:normal;font-weight:normal;line-height:125%;letter-spacing:0px;word-spacing:0px;fill:#000000;fill-opacity:1;stroke:none;font-family:Sans"
         xml:space="preserve"><tspan
           y="1700.1349"
           x="90.030502"
           id="tspan4653"
           sodipodi:role="line" /><tspan
           id="tspan4655"
           y="1750.1349"
           x="90.030502"
           sodipodi:role="line">Strzały trafiające w gruszki, ha, celem jest trafianie tylko w gruszki o odpowiedniej dojrzałości sa one wśród innych </tspan><tspan
           id="tspan4657"
           y="1800.1349"
           x="90.030502"
           sodipodi:role="line">i jeśli się trafi inną następuje utrata energi</tspan></text>
    </g>
    <rect
       style="fill:none;stroke:#701531;stroke-width:2;stroke-miterlimit:4;stroke-opacity:1;stroke-dasharray:2, 2;stroke-dashoffset:15.40000399"
       id="rect4667"
       width="1535.6373"
       height="1479.198"
       x="214.35829"
       y="339.35159"
       ry="739.599" />
    <text
       xml:space="preserve"
       style="font-size:40px;font-style:normal;font-weight:normal;line-height:125%;letter-spacing:0px;word-spacing:0px;fill:#000000;fill-opacity:1;stroke:none;font-family:Sans"
       x="1414.1307"
       y="-163.74344"
       id="text4671"
       sodipodi:linespacing="125%"><tspan
         sodipodi:role="line"
         id="tspan4673"
         x="1414.1307"
         y="-163.74344">miejsce z którego się strzela może jeździć po krawędzi</tspan><tspan
         sodipodi:role="line"
         x="1414.1307"
         y="-113.74344"
         id="tspan4675">bedzie to powodoac uczucie przestrzenności</tspan></text>
    <g
       id="shooter"
       transform="matrix(0.42277155,0.32664419,-0.37710469,0.48808195,1101.9632,-383.8719)"
       inkscape:export-filename="C:\workspace\GWH\\core\src\main\java\com\handfree\resources\pears\images\shooter.png"
       inkscape:export-xdpi="90"
       inkscape:export-ydpi="90"
       inkscape:label="#g3075">
      <path
         sodipodi:nodetypes="cccccccscscsscsscccccc"
         inkscape:connector-curvature="0"
         id="path3027"
         d="m 1817.5473,174.64867 c -2.4629,2.17985 -4.9258,4.35971 -7.3887,6.53956 -0.9851,0.43597 -2.1766,0.61859 -2.9555,1.30791 -1.2558,1.11152 -1.8898,2.66621 -2.9554,3.92374 -0.418,0.49325 -1.0598,0.81467 -1.4778,1.30792 -1.0656,1.25753 -1.6996,2.81222 -2.9554,3.92373 -0.7789,0.68933 -2.0954,0.69893 -2.9555,1.30792 -2.4682,1.74768 -6.3981,6.09979 -8.8664,7.84747 -18.7981,13.3103 -13.7011,8.05164 -28.0769,19.6187 -2.0619,1.65896 -3.8492,3.57268 -5.911,5.23165 -3.3603,2.70377 -7.1329,5.00529 -10.3441,7.84747 -3.2113,2.84219 -5.5294,6.42907 -8.8664,9.15539 -3.1136,2.5438 -7.2391,3.98762 -10.3442,6.53957 -3.837,3.1535 -6.8961,6.97553 -10.3441,10.4633 -2.9555,3.92373 -5.0989,8.43667 -8.8664,11.77121 -9.6336,8.52655 -21.3988,15.01588 -31.0324,23.54243 -3.2859,2.90829 -4.811,7.04113 -7.3887,10.4633 -1.3661,1.81375 -3.067,3.4179 -4.4332,5.23165 -1.5932,2.11518 -1.7536,-4.62042 -3.423,-2.5518 -0.8098,1.00342 -7.8572,2.94196 -3.9657,11.70719 -5.4606,-8.84953 0.7629,-13.52192 -1.4777,0 -0.4405,0.77989 -10.1015,-5.32718 -10.1015,-4.45524"
         style="fill:none;stroke:#000000;stroke-width:0.68813014px;stroke-linecap:butt;stroke-linejoin:miter;stroke-opacity:1" />
      <path
         transform="translate(65.786831,335.15794)"
         inkscape:connector-curvature="0"
         id="path3033"
         d="m 1589.9801,-24.992898 c -21.5499,8.754655 -43.0998,17.5093107 -64.6498,26.2639661 -0.6734,0.673435 -1.1684,1.5943873 -2.0203,2.0203051 -0.6023,0.3011693 -1.4179,-0.3011693 -2.0203,0 -2.1717,1.0858813 -3.8891,2.9547288 -6.0609,4.0406101 -0.6023,0.3011693 -1.5441,-0.4761905 -2.0203,0 -0.4762,0.4761905 0.4762,1.5441146 0,2.0203051 -1.0648,1.0647946 -2.9758,0.9555106 -4.0406,2.0203046 -3.0491,3.049107 -5.3207,6.788888 -8.0812,10.101526 -1.2441,1.492843 -5.3247,4.58836 -6.0609,6.060915 -0.9524,1.904762 -1.068,4.156153 -2.0203,6.060915 -1.5472,3.094255 -3.6003,1.579912 -6.061,4.04061 -0.4762,0.476191 0.1634,1.366978 0,2.020306 -0.5165,2.066004 -1.0679,4.156153 -2.0203,6.060915 -0.4259,0.851835 -1.492,1.227876 -2.0203,2.020305 -0.8353,1.25294 -1.1168,2.835933 -2.0203,4.04061 -1.1428,1.523809 -2.6937,2.69374 -4.0406,4.04061 -0.6734,0.673435 -1.5944,1.16847 -2.0203,2.020305 -0.3012,0.602339 0.3012,1.417967 0,2.020305 -0.4259,0.851836 -1.5944,1.16847 -2.0203,2.020305 -0.9524,1.904762 -1.0679,4.156154 -2.0203,6.060916 -0.4259,0.851835 -1.5944,1.168469 -2.0203,2.020305 -0.6023,1.204677 0.6023,2.835933 0,4.04061 -0.4259,0.851835 -1.7191,1.116797 -2.0203,2.020305 0,0.0092 0,6.058987 0,6.060915 -1.7169,1.716929 -4.344,2.323681 -6.0609,4.04061 -0.4762,0.476191 0.2129,1.381429 0,2.020305 -0.4762,1.428572 -1.5441,2.612039 -2.0203,4.040611 -0.213,0.638876 0.3735,1.459973 0,2.020305 -1.0566,1.584857 -3.3332,2.272083 -4.0406,4.04061 -3.5917,8.979138 1.1972,3.292348 0,8.081218 -0.5165,2.06601 -1.5038,3.99491 -2.0204,6.06092 -0.1633,0.65333 0.6735,2.0203 0,2.0203 -0.6734,0 0,-1.34687 0,-2.0203"
         style="fill:none;stroke:#000000;stroke-width:1px;stroke-linecap:butt;stroke-linejoin:miter;stroke-opacity:1" />
      <path
         sodipodi:nodetypes="ccssccccsccccscccssscccsc"
         transform="translate(65.786831,335.15794)"
         inkscape:connector-curvature="0"
         id="path3039"
         d="m 1452.5993,112.38785 c 4.7141,8.08122 8.9526,16.45928 14.1422,24.24366 0.3735,0.56033 1.3469,0 2.0203,0 0.6734,0 1.418,0.30117 2.0203,0 0.8518,-0.42592 1.5944,-1.16847 2.0203,-2.02031 0.3012,-0.60234 -0.6023,-1.71913 0,-2.0203 1.2047,-0.60234 2.9199,0.74711 4.0406,0 4.3741,-2.91606 1.1024,-3.30706 2.0203,-6.06092 0.4762,-1.42857 1.2732,-2.73317 2.0203,-4.04061 1.9482,-3.40939 3.8828,-6.83425 6.0609,-10.10152 0.5283,-0.79243 1.5944,-1.16847 2.0203,-2.02031 0.6024,-1.20468 -0.6929,-2.88568 0,-4.04061 19.2556,-32.092564 -5.9542,16.90594 8.0813,-18.182744 1.4583,-3.645911 3.7785,-6.906183 6.0609,-10.101525 1.1071,-1.549969 2.6937,-2.69374 4.0406,-4.04061 0.6734,-0.673435 1.7191,-1.116797 2.0203,-2.020305 0.4259,-1.277753 -0.6023,-2.835933 0,-4.04061 0.3012,-0.602339 1.5441,0.47619 2.0203,0 0.4762,-0.476191 -0.4762,-1.544115 0,-2.020305 0.4762,-0.476191 1.5441,0.47619 2.0203,0 0.4762,-0.476191 0,-1.346871 0,-2.020306 0.6734,-0.673435 1.2279,-1.492019 2.0203,-2.020305 1.0608,-0.707192 5.3992,-2.05537 6.0609,-4.04061 0.394,-1.182036 -2.0203,2.74424 9.0914,-12.12183 7.9073,-10.579096 13.132,-0.02997 13.132,-13.131983"
         style="fill:none;stroke:#000000;stroke-width:1px;stroke-linecap:butt;stroke-linejoin:miter;stroke-opacity:1" />
      <path
         sodipodi:nodetypes="ccccscscccccccccccscssssscssssssscccsc"
         transform="translate(65.786831,335.15794)"
         inkscape:connector-curvature="0"
         id="path3041"
         d="m 1582.909,23.494423 c -5.3875,12.121831 4.3774,-14.1421346 -1.0101,-2.020304 0,1.34687 0.4259,2.762857 0,4.04061 -0.3012,0.903508 -1.5944,1.16847 -2.0203,2.020305 -2.488,4.975913 5.8644,-1.823799 -2.0203,6.060915 -0.4762,0.476191 -1.7192,-0.602338 -2.0203,0 -0.6024,1.204677 0,2.69374 0,4.04061 0,0.673435 0.3735,1.459974 0,2.020306 -1.0566,1.584857 -3.1888,2.336939 -4.0407,4.04061 -0.1661,0.332296 0.1566,7.298716 0,8.08122 -0.4176,2.088233 -1.6026,3.972682 -2.0203,6.060915 -0.5282,2.64143 0.8519,5.525714 0,8.081221 -0.3011,0.903507 -1.5943,1.168469 -2.0203,2.020305 -0.8081,1.616244 0.8082,4.444671 0,6.060915 -0.4259,0.851835 -1.7191,1.116797 -2.0203,2.020305 -0.308,0.924061 0.4495,7.18223 0,8.08122 -0.4259,0.851836 -1.5944,1.16847 -2.0203,2.020305 -0.3011,0.602339 0.6024,1.719136 0,2.020305 -11.4484,0 -0.6734,-1.34687 -4.0406,2.020305 -0.4762,0.476191 -1.7191,-0.602338 -2.0203,0 -0.6023,1.204678 0.6024,2.835933 0,4.040611 -0.3012,0.602338 -1.5441,-0.476191 -2.0203,0 -0.4762,0.47619 0.4762,1.544114 0,2.020305 -0.4762,0.47619 -1.5441,-0.476191 -2.0203,0 -0.4762,0.47619 0.4762,1.544114 0,2.020305 -0.9524,0.952381 -2.7629,-0.425918 -4.0406,0 -6.9644,2.321478 -1.4966,2.020308 -6.0609,2.020308 -0.6735,0 -1.3469,0 -2.0203,0 -0.6735,0 -1.5441,0.47619 -2.0203,0 -0.4762,-0.476194 0,-1.346873 0,-2.020308 0,-2.020305 0,-4.04061 0,-6.060915 0,-6.060916 0,-12.121831 0,-18.182746 0,-1.34687 0,-2.69374 0,-4.04061 0,-0.673435 -0.3012,-1.417967 0,-2.020305 0.4259,-0.851836 1.7191,-1.116798 2.0203,-2.020305 0,-0.0092 0,-6.058987 0,-6.060916 0.4762,-0.47619 2.0203,-0.673435 2.0203,0 0,0.673435 -1.3469,-17.172593 -2.0203,-17.172593"
         style="fill:none;stroke:#000000;stroke-width:1px;stroke-linecap:butt;stroke-linejoin:miter;stroke-opacity:1" />
      <path
         sodipodi:nodetypes="ccsscscsccccccssscsssssscscccsc"
         transform="translate(65.786831,335.15794)"
         inkscape:connector-curvature="0"
         inkscape:original-d="m 1585.9395,25.514729 c 70.1298,56.555689 71.7447,-46.880627 111.1168,-62.629457 1.9772,-0.79091 3.9949,-1.503804 6.0609,-2.020305 0.6533,-0.163332 1.46,0.373554 2.0203,0 1.5848,-1.056572 2.4557,-2.984039 4.0406,-4.040611 0.5603,-0.373554 1.5441,0.476191 2.0203,0 0.4762,-0.47619 -0.3012,-1.417966 0,-2.020305 0.4259,-0.851835 1.3469,-1.34687 2.0203,-2.020305 0.6734,-0.673435 1.3469,-1.34687 2.0203,-2.020305 2.6937,-2.69374 5.9681,-4.911505 8.0812,-8.08122 1.1813,-1.771925 1.068,-4.156153 2.0203,-6.060915 0.426,-0.851836 1.5944,-1.16847 2.0203,-2.020305 0.3012,-0.602339 -0.3011,-1.417967 0,-2.020306 9.5282,-19.05623 0.3786,0.44238 6.061,-8.08122 0.8352,-1.25294 0.9555,-2.975816 2.0203,-4.04061 1.7169,-1.716929 4.3439,-2.323681 6.0609,-4.04061 0.4762,-0.476191 -0.4762,-1.544115 0,-2.020305 0.4762,-0.476191 1.4179,0.301169 2.0203,0 0.8518,-0.425918 1.1685,-1.594388 2.0203,-2.020305 0.6023,-0.30117 1.3814,0.212959 2.0203,0 1.4286,-0.476191 2.612,-1.544115 4.0406,-2.020305 0.6389,-0.212959 1.418,0.301169 2.0203,0 0.8518,-0.425918 1.1685,-1.594388 2.0203,-2.020305 0.6023,-0.30117 1.5441,0.47619 2.0203,0 4.9069,-4.906921 -0.6008,-2.966661 4.0406,-6.060916 -1.365,-3.259849 5.2216,-1.600651 6.0609,-2.020305 8.4081,-4.204014 -2.1597,0.139473 2.0203,-4.040614 0.4762,-0.47619 1.5442,0.47619 2.0204,0 0.4761,-0.47619 -0.4762,-1.54411 0,-2.0203 0.4761,-0.47619 1.5441,0.47619 2.0203,0 5.5412,-5.54123 -2.8965,-6.06092 6.0609,-6.06092"
         inkscape:path-effect="#path-effect3069"
         id="path3067"
         d="m 1585.9395,25.514729 c 37.1249,-20.7234585 74.1643,-41.600181 111.1168,-62.629457 0.9398,-0.534849 1.8838,-1.071823 2.8919,-1.463139 1.0081,-0.391316 2.0904,-0.634376 3.169,-0.557166 0.3387,0.02424 0.6746,0.07976 1.0134,0.10142 0.3389,0.02166 0.6856,0.0083 1.0069,-0.10142 0.4717,-0.161021 0.8545,-0.519011 1.1441,-0.924683 0.2895,-0.405672 0.4979,-0.86219 0.7249,-1.305933 0.2269,-0.443743 0.4789,-0.883827 0.8366,-1.230943 0.1788,-0.173558 0.3833,-0.322279 0.61,-0.425846 0.2267,-0.103567 0.4759,-0.161164 0.725,-0.153206 0.3519,0.01124 0.686,0.150277 1.0319,0.215969 0.1729,0.03285 0.3514,0.04725 0.525,0.01772 0.1736,-0.02953 0.3425,-0.105673 0.4634,-0.233686 0.1199,-0.126959 0.186,-0.298065 0.2079,-0.471286 0.022,-0.173222 0,-0.349306 -0.033,-0.52043 -0.069,-0.34225 -0.1984,-0.680158 -0.1753,-1.028589 0.016,-0.24749 0.1106,-0.486223 0.2485,-0.692364 0.1379,-0.206142 0.3185,-0.381173 0.515,-0.532573 0.3929,-0.302799 0.8487,-0.513416 1.2568,-0.795368 0.7855,-0.542615 1.3649,-1.326191 2.0203,-2.020305 1.3245,-1.402617 2.972,-2.449626 4.486,-3.645298 1.5139,-1.195672 2.9491,-2.61821 3.5952,-4.435922 0.3619,-1.018165 0.4572,-2.108281 0.6713,-3.167435 0.2141,-1.059155 0.576,-2.138391 1.349,-2.89348 0.3455,-0.337499 0.759,-0.595856 1.136,-0.897694 0.3771,-0.301838 0.7293,-0.665183 0.8843,-1.122611 0.1089,-0.321248 0.1133,-0.66857 0.087,-1.006771 -0.026,-0.338202 -0.081,-0.674398 -0.087,-1.013535 -0.016,-0.864823 0.2902,-1.714164 0.7537,-2.444476 0.4635,-0.730313 1.0789,-1.352076 1.7256,-1.926539 1.2933,-1.148927 2.7716,-2.181639 3.5817,-3.710205 0.3558,-0.671489 0.5646,-1.409061 0.8349,-2.119295 0.2704,-0.710235 0.6181,-1.415599 1.1854,-1.921315 0.4883,-0.435305 1.1088,-0.694599 1.7367,-0.87807 0.6279,-0.183471 1.2744,-0.298788 1.9001,-0.489634 0.6257,-0.190846 1.2414,-0.46558 1.7141,-0.917846 0.2363,-0.226133 0.4337,-0.495282 0.5619,-0.796168 0.1283,-0.300886 0.1858,-0.634001 0.1481,-0.958892 -0.041,-0.353417 -0.1912,-0.685296 -0.2549,-1.035321 -0.032,-0.175013 -0.042,-0.356232 -0.01,-0.530281 0.037,-0.174049 0.1231,-0.341006 0.2599,-0.454703 0.1334,-0.110858 0.3072,-0.16526 0.4802,-0.177494 0.173,-0.01223 0.3465,0.01513 0.5158,0.05286 0.1693,0.03773 0.3363,0.08592 0.5071,0.116328 0.1708,0.03041 0.3472,0.04272 0.5172,0.0083 0.2391,-0.0484 0.4527,-0.187381 0.6251,-0.360009 0.1724,-0.172627 0.3075,-0.378466 0.4353,-0.58627 0.1278,-0.207804 0.2502,-0.419983 0.402,-0.611023 0.1517,-0.19104 0.3358,-0.362033 0.5579,-0.463003 0.3101,-0.140972 0.6663,-0.134512 1.0045,-0.09391 0.3381,0.0406 0.6757,0.112754 1.0158,0.09391 0.3819,-0.02116 0.7504,-0.157179 1.0846,-0.343051 0.3343,-0.185872 0.6381,-0.42107 0.9399,-0.656074 0.3018,-0.235004 0.6042,-0.471703 0.9365,-0.661054 0.3324,-0.189351 0.6982,-0.331002 1.0796,-0.360126 0.3387,-0.02586 0.6768,0.03722 1.0144,0.0751 0.3375,0.03788 0.6896,0.04882 1.0059,-0.0751 0.2249,-0.08814 0.4202,-0.240778 0.5857,-0.416733 0.1655,-0.175955 0.3036,-0.375576 0.4393,-0.575435 0.1357,-0.199858 0.2703,-0.401486 0.43,-0.582746 0.1597,-0.181261 0.3466,-0.342779 0.5653,-0.445391 0.3094,-0.145147 0.6638,-0.164206 1.0043,-0.135248 0.3405,0.02896 0.6758,0.103132 1.016,0.135248 0.7392,0.06978 1.4965,-0.06422 2.1669,-0.383359 0.6703,-0.319143 1.2518,-0.822556 1.6636,-1.440302 0.4118,-0.617745 0.6529,-1.348115 0.6896,-2.089641 0.037,-0.741526 -0.1308,-1.492159 -0.4795,-2.147614 0.4926,0.397255 1.086,0.668399 1.7087,0.780737 0.6228,0.112337 1.2736,0.06564 1.8739,-0.134473 0.6003,-0.200108 1.149,-0.553211 1.5797,-1.01673 0.4308,-0.463518 0.7429,-1.036495 0.8986,-1.649839 0.2037,-0.802564 0.1414,-1.655144 0.3521,-2.455894 0.1054,-0.40038 0.2831,-0.78945 0.5681,-1.08977 0.285,-0.30031 0.6862,-0.50403 1.1001,-0.49495 0.3565,0.008 0.6903,0.16693 1.0387,0.24296 0.1742,0.038 0.3557,0.0551 0.5308,0.0216 0.1751,-0.0336 0.344,-0.12184 0.4509,-0.26452 0.1043,-0.13922 0.1424,-0.31943 0.1373,-0.49333 -0,-0.1739 -0.05,-0.34395 -0.098,-0.51118 -0.048,-0.16723 -0.1,-0.33468 -0.1182,-0.50765 -0.019,-0.17297 -0,-0.35433 0.079,-0.50814 0.087,-0.16513 0.2453,-0.28705 0.4212,-0.34997 0.1759,-0.0629 0.3684,-0.07 0.553,-0.0419 0.3694,0.0562 0.7022,0.24592 1.0461,0.39186 0.8416,0.35716 1.7905,0.45683 2.688,0.28233 0.8974,-0.17449 1.7398,-0.62243 2.3863,-1.26892 0.6465,-0.64649 1.0945,-1.4889 1.2689,-2.38636 0.1745,-0.89747 0.075,-1.84635 -0.2823,-2.68797"
         style="fill:none;stroke:#000000;stroke-width:1px;stroke-linecap:butt;stroke-linejoin:miter;stroke-opacity:1" />
      <text
         transform="matrix(0.67150846,-0.74099689,0.74099689,0.67150846,0,0)"
         sodipodi:linespacing="125%"
         id="text3071"
         y="1471.1938"
         x="905.75415"
         style="font-size:40px;font-style:normal;font-weight:normal;line-height:125%;letter-spacing:0px;word-spacing:0px;fill:#000000;fill-opacity:1;stroke:none;font-family:Sans"
         xml:space="preserve"><tspan
           style="font-size:14px;fill:#008000"
           y="1471.1938"
           x="905.75415"
           id="tspan3073"
           sodipodi:role="line">ręka ;)</tspan></text>
    </g>
  </g>
</svg>
